<?xml version="1.0" encoding="UTF-8"?>
<svg width="64px" height="64px" viewBox="0 0 64 64" version="1.1" xmlns="http://www.w3.org/2000/svg" xmlns:xlink="http://www.w3.org/1999/xlink">
    <!-- Generator: Sketch 56.2 (81672) - https://sketch.com -->
    <title>Logos / Social / logo_google</title>
    <desc>Created with Sketch.</desc>
    <g id="Logos-/-Social-/-logo_google" stroke="none" stroke-width="1" fill="none" fill-rule="evenodd">
        <path d="M60.9545455,26.5454545 L33,26.5454545 L33,38.1363636 L49.0909091,38.1363636 C47.5909091,45.5 41.3181818,49.7272727 33,49.7272727 C23.1818182,49.7272727 15.2727273,41.8181818 15.2727273,32 C15.2727273,22.1818182 23.1818182,14.2727273 33,14.2727273 C37.2272727,14.2727273 41.0454545,15.7727273 44.0454545,18.2272727 L52.7727273,9.5 C47.4545455,4.86363636 40.6363636,2 33,2 C16.3636364,2 3,15.3636364 3,32 C3,48.6363636 16.3636364,62 33,62 C48,62 61.6363636,51.0909091 61.6363636,32 C61.6363636,30.2272727 61.3636364,28.3181818 60.9545455,26.5454545 Z" id="a"></path>
        <path d="M6.07164279,18.7071921 L16.1616299,26.4230646 C15.5846959,28.1754048 15.2727273,30.050051 15.2727273,32 C15.2727273,33.949949 15.5846959,35.8245952 16.1616299,37.5769354 L6.07164279,45.2928079 C4.10371896,41.2918465 3,36.7810725 3,32 C3,27.2189275 4.10371896,22.7081535 6.07164279,18.7071921 L6.07164279,18.7071921 Z" id="Path" fill="#FBBC05" fill-rule="nonzero"></path>
        <path d="M16.1616299,26.4230646 L6.07164279,18.7071921 C10.9513659,8.78628799 21.1447089,2 33,2 C40.6363636,2 47.4545455,4.86363636 52.7727273,9.5 L44.0454545,18.2272727 C41.0454545,15.7727273 37.2272727,14.2727273 33,14.2727273 C25.1317672,14.2727273 18.4896145,19.3522023 16.1616299,26.4230646 Z" id="Path" fill="#EA4335" fill-rule="nonzero"></path>
        <path d="M6.06758272,45.2845502 L16.1534563,37.5520471 C18.4740352,44.6358753 25.1225386,49.7272727 33,49.7272727 C41.3181818,49.7272727 47.5909091,45.5 49.0909091,38.1363636 L33,38.1363636 L33,26.5454545 L60.9545455,26.5454545 C61.3636364,28.3181818 61.6363636,30.2272727 61.6363636,32 C61.6363636,51.0909091 48,62 33,62 C21.1414199,62 10.9457102,55.2099461 6.06758272,45.2845502 L6.06758272,45.2845502 Z" id="Path" fill="#34A853" fill-rule="nonzero"></path>
        <path d="M52.5537991,54.5284545 L42.9748724,47.1125112 C46.1068743,45.135904 48.2860132,42.0876708 49.0909091,38.1363636 L33,38.1363636 L33,26.5454545 L60.9545455,26.5454545 C61.3636364,28.3181818 61.6363636,30.2272727 61.6363636,32 C61.6363636,41.7779259 58.0591997,49.4095535 52.5537991,54.5284545 L52.5537991,54.5284545 Z" id="Path" fill="#4285F4" fill-rule="nonzero"></path>
    </g>
</svg>