<svg xmlns="http://www.w3.org/2000/svg" width="72" height="49">
  <path fill="#7A768E" d="M12.755 25.838c-.687 1.967-2.052 4.23-4.096 6.79-2.045 2.559-3.914 4.08-5.61 4.565-.457.131-.823.098-1.098-.1-.275-.196-.497-.59-.667-1.18-.424-1.476-.373-3.501.153-6.076.526-2.575 1.382-5.193 2.567-7.855 1.185-2.662 2.827-5.128 4.926-7.397 2.098-2.27 4.345-3.747 6.739-4.432 1.64-.469 2.75.302 3.33 2.315.385 1.341.268 3.567-.352 6.676a76.768 76.768 0 0 1-2.402 9.115c-.98 2.966-1.88 5.662-2.696 8.088-.817 2.425-1.21 3.692-1.178 3.8.43-.937 1.51-2.974 3.243-6.111a267.472 267.472 0 0 1 4.68-8.176c1.387-2.313 3.042-4.913 4.963-7.8 1.921-2.887 3.747-5.42 5.479-7.599 1.731-2.18 3.548-4.114 5.45-5.805 1.9-1.69 3.604-2.751 5.11-3.182.512-.146.798-.112.86.103.077.268-.494 1.092-1.713 2.471-1.22 1.38-1.883 2.085-1.99 2.116-.108.03-.173.006-.197-.075-.023-.08.036-.257.176-.53.14-.271.202-.434.187-.488-.016-.054-.064-.07-.144-.046-1.641.47-4.266 2.933-7.876 7.391-3.609 4.459-7.362 9.858-11.26 16.2-3.897 6.34-7.014 12.182-9.35 17.525-.364.859-1.165 1.465-2.403 1.819-.215.062-.334.052-.357-.028-.023-.08.084-.315.322-.702.238-.388.82-1.759 1.743-4.114.924-2.354 1.506-3.95 1.746-4.789.24-.838.836-2.685 1.79-5.542a319.122 319.122 0 0 0 2.412-7.484c.654-2.132 1.259-4.585 1.815-7.357.557-2.772.754-4.948.59-6.527-.315-.897-.97-1.203-1.966-.919-1.453.416-3.104 1.686-4.953 3.812-1.848 2.126-3.502 4.5-4.96 7.124a39.813 39.813 0 0 0-3.406 8.051c-.812 2.744-1.003 4.867-.57 6.37.223.778.671 1.07 1.344.878 1.587-.454 3.205-1.737 4.854-3.849s3.099-4.537 4.35-7.276c.088-.199.185-.314.293-.345.108-.03.177.008.208.115.03.107.002.26-.086.46zm15.017 2.108c-.024-.08-.089-.106-.197-.075-.726.208-1.674 1.162-2.845 2.861a25.118 25.118 0 0 0-2.803 5.288c1.221-.814 2.538-2.236 3.948-4.265 1.411-2.03 2.043-3.3 1.897-3.81zM21.18 40.109c.1.349.285.485.554.408.323-.093.985-.522 1.988-1.287 1.003-.766 1.805-1.468 2.408-2.105l3.237-3.626.191.512c-2.285 2.686-4.046 4.482-5.285 5.388-1.239.906-2.087 1.424-2.544 1.555-.754.215-1.265-.147-1.535-1.086-.363-1.26-.268-2.652.284-4.175.552-1.522 1.325-2.861 2.317-4.016.993-1.155 1.987-2.15 2.984-2.987.997-.837 1.791-1.34 2.383-1.51.592-.169.946-.052 1.061.35.286.993-.544 2.537-2.49 4.632-1.944 2.095-3.631 3.594-5.06 4.496-.537 1.576-.701 2.727-.493 3.45zm20.107-11.325l.427.27a115.789 115.789 0 0 0-2.483 2.757c-.633.733-1.152 1.157-1.555 1.272-.592.17-.961 0-1.108-.51-.108-.376-.113-1.18-.016-2.413.096-1.233.16-2.1.19-2.602l-.156-.086c-.107.03-.213.119-.316.264-2.093 2.95-3.428 4.915-4.005 5.893A34.081 34.081 0 0 0 30.66 36.7c-.493 1.07-.761 1.655-.805 1.755a3.31 3.31 0 0 1-.095.201c-.058.104-.322.223-.793.358-.47.134-.718.161-.74.08.03-.095.258-.567.684-1.414a98.62 98.62 0 0 0 2.722-5.874l-.974 1.018a89.477 89.477 0 0 0-2.217 2.464l-.289-.397 2.08-2.337c.744-.851 1.354-1.693 1.828-2.526.474-.832.774-1.484.9-1.956.127-.472.245-.868.356-1.19.112-.323.248-.507.41-.553.16-.046.443-.025.847.062.077.269-.003.8-.24 1.594-.238.793-.495 1.52-.771 2.18l-.426.95c.015.053.037.076.064.068.08-.023.16-.097.241-.222.081-.124.424-.629 1.028-1.513.605-.884 1.136-1.646 1.592-2.285a15.887 15.887 0 0 1 1.65-1.93c.644-.649 1.14-1.023 1.49-1.123.35-.1.548-.07.594.091.062.215-.466.86-1.584 1.934-.25.246-.478 1.146-.686 2.7-.208 1.555-.22 2.655-.035 3.299.039.134.186.164.442.091.255-.073.69-.459 1.304-1.157l2.051-2.285zm-.853 5.993c.726-.208 2.212-1.772 4.458-4.694 2.246-2.921 3.71-5.525 4.392-7.81-.054-.188-.242-.236-.565-.144-.753.216-1.87 1.144-3.348 2.787a30.646 30.646 0 0 0-3.884 5.4c-1.11 1.959-1.535 3.394-1.273 4.306.039.134.112.186.22.155zm5.834-.667c-.323.092-.536-.042-.64-.405a2.714 2.714 0 0 1-.056-1.181c.067-.426.194-.97.382-1.634.249-.855.387-1.49.413-1.904l-.052-.028c-3.213 4.112-5.29 6.303-6.232 6.573-.296.084-.521-.142-.676-.678-.4-1.395-.282-2.881.356-4.457a12.971 12.971 0 0 1 2.744-4.204 25.12 25.12 0 0 1 3.716-3.175c1.287-.89 2.415-1.474 3.383-1.751 3.702-7.476 6.51-13.607 8.424-18.393.387-.982.967-1.598 1.74-1.848.242-.069.394.004.455.218.062.215-1.114 2.86-3.527 7.934a882.894 882.894 0 0 0-7.17 15.464c-2.366 5.236-3.46 8.162-3.283 8.78.03.106.113.14.248.102.134-.038.606-.42 1.417-1.145a32.273 32.273 0 0 0 2.149-2.096l3.237-3.626.19.512c-3.601 4.282-6.007 6.596-7.218 6.942zm13.993-14.062l-.012-.04c-.46.422-.87 1.228-1.226 2.42-.356 1.19-.484 2.163-.383 2.918 1.366-2.54 1.906-4.305 1.62-5.298zm-6.177 10.869c1.022-.292 2.368-1.839 4.038-4.639l-.058-.201c-.24-.832-.124-1.975.345-3.43.47-1.456.99-2.454 1.563-2.995a.455.455 0 0 0-.358-.029c-.995.285-2.315 1.896-3.96 4.834-1.644 2.939-2.284 5.038-1.922 6.3.046.16.164.214.352.16zm-1.413-.206c-.578-2.012.008-4.35 1.76-7.014 1.753-2.665 3.396-4.216 4.93-4.654.752-.216 1.225.012 1.418.682.548 1.905.073 4.103-1.423 6.592.176.008.345-.012.507-.058.753-.215 1.708-.996 2.863-2.343l.318.345c-1.39 1.646-2.529 2.596-3.417 2.85-.35.1-.624.105-.824.017a16.15 16.15 0 0 1-2.707 3.04c-1.003.867-1.766 1.375-2.291 1.525-.525.15-.903-.177-1.134-.982zM67.77 20.035c-.054-.188-.048-.422.017-.701.065-.28.164-.44.299-.478.134-.039.283.02.444.178 1.167-1.612 1.67-2.699 1.508-3.262-.023-.08-.102-.102-.237-.063-.86.246-1.87 1.188-3.03 2.826a23.566 23.566 0 0 0-2.817 5.314c-.72 1.904-.948 3.312-.685 4.224.069.242.225.328.467.258.995-.284 2.697-1.758 5.104-4.42l1.97-2.263.191.512a266.53 266.53 0 0 1-1.883 2.106c-2.566 2.824-4.453 4.41-5.664 4.756-.538.154-.969-.333-1.293-1.46-.324-1.127-.149-2.592.526-4.397.675-1.804 1.688-3.495 3.04-5.072s2.713-2.561 4.085-2.954c.538-.153.869-.016.992.413.17.59-.07 1.501-.72 2.733-.651 1.231-1.178 1.904-1.581 2.02-.404.115-.648.025-.733-.27z"/>
</svg>
