<?xml version="1.0" encoding="UTF-8"?>
<svg width="268px" height="62px" viewBox="0 0 268 62" version="1.1" xmlns="http://www.w3.org/2000/svg" xmlns:xlink="http://www.w3.org/1999/xlink">
    <!-- Generator: Sketch 56.2 (81672) - https://sketch.com -->
    <title>Logos / logo_verdoc</title>
    <desc>Created with Sketch.</desc>
    <g id="Logos-/-logo_verdoc" stroke="none" stroke-width="1" fill="none" fill-rule="evenodd">
        <path d="M70.423816,34.0524738 C70.590064,37.0749776 71.603123,39.4100367 73.4630232,41.0577211 C75.3229234,42.7054055 77.8633635,43.5292354 81.0844197,43.5292354 C83.5157977,43.5292354 86.1653364,42.8733199 89.0331155,41.5614693 C91.9008946,40.2496186 93.6360828,39.5937031 94.238732,39.5937031 C94.8621622,39.5937031 95.3816796,39.7931015 95.7972998,40.191904 C96.2129199,40.5907066 96.4207269,41.0839551 96.4207269,41.6716642 C96.4207269,42.2803629 96.2025296,42.8365792 95.7661284,43.3403298 C95.3297273,43.8440805 94.6335739,44.3373289 93.6776476,44.82009 C91.5995468,45.8485809 89.4539399,46.6356794 87.2407625,47.1814093 C85.0275852,47.7271392 82.8300266,48 80.6480207,48 C75.9099509,48 72.1174739,46.6199538 69.2704758,43.8598201 C66.4234777,41.0996863 65,37.4423016 65,32.8875562 C65,28.2488524 66.5066005,24.4917685 69.5198466,21.6161919 C72.5330928,18.7406153 76.4606444,17.3028486 81.3026192,17.3028486 C85.6874119,17.3028486 89.3240337,18.6461635 92.2125938,21.3328336 C95.1011539,24.0195037 96.5454123,27.2728445 96.5454123,31.0929535 C96.5454123,32.2683717 96.3012391,33.0554703 95.8128855,33.4542729 C95.3245318,33.8530755 93.9997624,34.0524738 91.8385376,34.0524738 L70.423816,34.0524738 Z M70.5796727,29.928036 L90.8722255,29.928036 C90.5605104,27.4302724 89.5266708,25.4205473 87.7706756,23.8988006 C86.0146804,22.3770539 83.8586832,21.6161919 81.3026192,21.6161919 C78.5387452,21.6161919 76.2113072,22.3508172 74.3202355,23.82009 C72.4291637,25.2893627 71.182322,27.3253243 70.5796727,29.928036 Z M116.214538,42.7736132 L126.563428,42.7736132 C127.373888,42.7736132 127.971333,42.9467749 128.355781,43.2931034 C128.74023,43.639432 128.932451,44.190401 128.932451,44.946027 C128.932451,45.806601 128.75062,46.3995486 128.386953,46.7248876 C128.023285,47.0502265 127.353107,47.2128936 126.3764,47.2128936 L105.990333,47.2128936 C105.179874,47.2128936 104.566843,47.0239899 104.151223,46.6461769 C103.735603,46.2683639 103.527796,45.701653 103.527796,44.946027 C103.527796,44.2113906 103.740798,43.665669 104.166809,43.3088456 C104.59282,42.9520222 105.252607,42.7736132 106.14619,42.7736132 L111.570006,42.7736132 L111.570006,22.5922039 L109.450354,22.5922039 C107.434596,22.5922039 106.177364,22.4295369 105.67862,22.1041979 C105.179875,21.7788589 104.930507,21.1859113 104.930507,20.3253373 C104.930507,19.590701 105.133119,19.039732 105.538349,18.6724138 C105.943578,18.3050956 106.561804,18.1214393 107.393044,18.1214393 L114.500113,18.1214393 C115.061201,18.1214393 115.487205,18.2316331 115.778139,18.452024 C116.069073,18.6724149 116.214538,18.9925016 116.214538,19.4122939 L116.214538,24.7646177 C118.188734,22.2668541 120.246023,20.4093014 122.386467,19.191904 C124.52691,17.9745067 126.833568,17.3658171 129.306508,17.3658171 C131.156017,17.3658171 132.652227,17.7436244 133.795183,18.4992504 C134.938138,19.2548763 135.509607,20.2308786 135.509607,21.4272864 C135.509607,22.2039019 135.223873,22.8913014 134.652395,23.4895052 C134.080917,24.0877091 133.452301,24.3868066 132.766528,24.3868066 C132.288565,24.3868066 131.483313,24.0667198 130.350748,23.4265367 C129.218183,22.7863536 128.205124,22.4662669 127.311541,22.4662669 C125.690622,22.4662669 123.98141,23.0487198 122.183853,24.2136432 C120.386295,25.3785665 118.396544,27.2203772 116.214538,29.7391304 L116.214538,42.7736132 Z M166.961506,47.2128936 C166.525104,47.2128936 166.218589,47.1026998 166.041951,46.8823088 C165.865312,46.6619179 165.776994,46.2368847 165.776994,45.6071964 L165.776994,43.0254873 C164.530134,44.599708 162.971581,45.8223345 161.101291,46.6934033 C159.231,47.5644721 157.204882,48 155.022876,48 C151.095266,48 147.806721,46.5884699 145.157142,43.7653673 C142.507564,40.9422647 141.182794,37.4318051 141.182794,33.2338831 C141.182794,28.8890337 142.595882,25.2736276 145.422099,22.3875562 C148.248316,19.5014848 151.770644,18.0584708 155.989188,18.0584708 C158.129632,18.0584708 160.051847,18.4415254 161.755889,19.2076462 C163.459932,19.9737669 164.924971,21.1019416 166.15105,22.5922039 L166.15105,10.5337331 L164.498969,10.5337331 C162.691021,10.5337331 161.522107,10.3710661 160.992191,10.0457271 C160.462275,9.72038818 160.197321,9.12744058 160.197321,8.26686657 C160.197321,7.5112406 160.410324,6.94452963 160.836334,6.56671664 C161.262345,6.18890366 161.880571,6 162.69103,6 L169.081158,6 C169.704588,6 170.156568,6.10494648 170.437112,6.31484258 C170.717655,6.52473868 170.857925,6.85007276 170.857925,7.29085457 L170.857925,42.7736132 L172.260636,42.7736132 C173.278906,42.7736132 174.01662,42.9467749 174.473802,43.2931034 C174.930985,43.639432 175.159572,44.190401 175.159572,44.946027 C175.159572,45.6596737 174.962156,46.2158901 174.567317,46.6146927 C174.172477,47.0134952 173.64257,47.2128936 172.977577,47.2128936 L166.961506,47.2128936 Z M146.544267,33.0764618 C146.544267,35.973028 147.469008,38.3448184 149.318518,40.191904 C151.168028,42.0389897 153.516247,42.9625187 156.363245,42.9625187 C159.231024,42.9625187 161.589633,42.0022585 163.439142,40.0817091 C165.288652,38.1611598 166.213393,35.7211542 166.213393,32.7616192 C166.213393,29.8440634 165.293847,27.4407891 163.454728,25.5517241 C161.615609,23.6626592 159.251805,22.7181409 156.363245,22.7181409 C153.433122,22.7181409 151.064123,23.6731539 149.256175,25.5832084 C147.448228,27.4932629 146.544267,29.9909891 146.544267,33.0764618 Z M195.888524,43.5922039 C199.088799,43.5922039 201.712362,42.5689757 203.759291,40.5224888 C205.806221,38.4760018 206.82967,35.8680818 206.82967,32.6986507 C206.82967,29.5292195 205.801026,26.9108049 203.743706,24.8433283 C201.686386,22.7758517 199.068018,21.7421289 195.888524,21.7421289 C192.70903,21.7421289 190.095857,22.7758517 188.048928,24.8433283 C186.001999,26.9108049 184.978549,29.5292195 184.978549,32.6986507 C184.978549,35.8890714 185.996804,38.5022387 188.033342,40.5382309 C190.069881,42.5742231 192.688249,43.5922039 195.888524,43.5922039 Z M212.253486,32.6986507 C212.253486,37.1904273 210.736495,40.8635539 207.702468,43.7181409 C204.668441,46.5727279 200.730499,48 195.888524,48 C191.06733,48 187.139779,46.5727279 184.105751,43.7181409 C181.071724,40.8635539 179.554734,37.1904273 179.554734,32.6986507 C179.554734,28.2068741 181.071724,24.5389947 184.105751,21.6949025 C187.139779,18.8508104 191.06733,17.4287856 195.888524,17.4287856 C200.709718,17.4287856 204.642465,18.8560577 207.686882,21.7106447 C210.7313,24.5652317 212.253486,28.2278637 212.253486,32.6986507 Z M243.580699,20.0104948 L243.580699,19.8845577 C243.580699,19.1919006 243.778115,18.6829102 244.172955,18.3575712 C244.567794,18.0322323 245.180824,17.8695652 246.012065,17.8695652 C246.864086,17.8695652 247.451141,18.1214368 247.773246,18.6251874 C248.095352,19.1289381 248.256402,20.1679082 248.256402,21.7421289 L248.256402,27.5982009 C248.256402,28.3748165 248.058986,28.9572694 247.664146,29.3455772 C247.269307,29.733885 246.677057,29.928036 245.887379,29.928036 C245.326292,29.928036 244.843141,29.7653689 244.437911,29.44003 C244.032681,29.114691 243.53914,28.4377863 242.957272,27.4092954 C241.959783,25.7091369 240.749308,24.4235426 239.325809,23.5524738 C237.90231,22.6814049 236.26583,22.2458771 234.41632,22.2458771 C231.174483,22.2458771 228.54053,23.2113846 226.514381,25.1424288 C224.488233,27.0734729 223.475174,29.5711991 223.475174,32.6356822 C223.475174,35.7631341 224.446672,38.3185808 226.389696,40.302099 C228.33272,42.2856171 230.831599,43.2773613 233.886407,43.2773613 C235.278735,43.2773613 236.603504,43.0832103 237.860755,42.6949025 C239.118006,42.3065948 240.307701,41.7241418 241.429875,40.9475262 C241.824714,40.6956509 242.354622,40.307349 243.019614,39.7826087 C244.37038,38.6701594 245.430195,38.113943 246.199093,38.113943 C246.843304,38.113943 247.368017,38.3185887 247.773246,38.7278861 C248.178476,39.1371835 248.381088,39.6671632 248.381088,40.3178411 C248.381088,41.9760203 246.827731,43.6709059 243.72097,45.4025487 C240.614209,47.1341916 237.315274,48 233.824064,48 C229.314586,48 225.558475,46.541244 222.555619,43.6236882 C219.552764,40.7061323 218.051358,37.0644896 218.051358,32.6986507 C218.051358,28.3328118 219.547568,24.6859217 222.540034,21.7578711 C225.532499,18.8298204 229.273024,17.3658171 233.761722,17.3658171 C235.341078,17.3658171 236.925606,17.5809574 238.515353,18.0112444 C240.105101,18.4415314 241.793532,19.1079415 243.580699,20.0104948 Z M258.960712,43.8244003 C258.960712,42.7499946 259.33233,41.8684442 260.075575,41.1797226 C260.818821,40.4910011 261.783662,40.1466454 262.970128,40.1466454 C264.183869,40.1466454 265.158938,40.4841139 265.895365,41.1590611 C266.631792,41.8340082 267,42.7224458 267,43.8244003 C267,44.9263548 266.628383,45.8147924 265.885137,46.4897395 C265.141891,47.1646867 264.170231,47.5021552 262.970128,47.5021552 C261.770025,47.5021552 260.801774,47.1646867 260.065347,46.4897395 C259.32892,45.8147924 258.960712,44.9263548 258.960712,43.8244003 Z" id="erdoc." fill="#211B43" fill-rule="nonzero"></path>
        <g id="V-/-v" transform="translate(-2.000000, 0.000000)">
            <path d="M14.7218595,0.96875 L47.2370344,0.96875 C50.0442028,0.96875 52.4502632,2.97499253 52.9548594,5.73643731 L57.0224879,27.996875 L4.96428114,27.996875 L9.00277219,5.74336935 C9.50449495,2.9787005 11.912034,0.96875 14.7218595,0.96875 Z" id="Rectangle" fill="#302A57"></path>
            <path d="M32.7615522,37.2510701 C33.6740011,36.5941471 34.2051732,35.4392503 33.9566893,34.1847587 C33.7243015,33.0037057 32.7474681,32.0469923 31.563397,31.8337187 C29.6489644,31.4876521 27.9820096,32.9493812 27.9820096,34.8004354 C27.9820096,35.7873289 28.4568452,36.6645677 29.1892188,37.2148539 C29.6952407,37.5941188 29.994025,38.1866573 29.994025,38.8174241 L29.994025,59.9536458 C29.994025,60.7866202 29.3189938,61.4626573 28.4850135,61.4626573 C28.0192319,61.4626573 27.5786005,61.2463657 27.2928943,60.8781669 L6.71601295,34.354774 C5.09432855,32.2723381 4.41829138,29.5359971 5.11847273,26.9867736 C5.68284305,24.9355239 6.97254491,23.3027735 8.6445297,22.2796636 L24.7315987,12.4207882 C28.5675061,10.0697482 33.392319,10.0677362 37.2292323,12.4167642 C42.9111638,15.8985568 50.8324684,20.75355 53.7076384,22.5150694 C54.5094265,23.0060012 55.227716,23.639786 55.7317259,24.4335261 C57.8815643,27.814718 57.4409329,31.5409705 55.4590978,34.088182 L34.7081771,60.8721308 C34.1971251,61.5300598 33.2494659,61.6507808 32.5905309,61.1407349 C32.222332,60.8540227 32.0060404,60.4143973 32.0060404,59.9476097 L32.0060404,38.8194361 C32.0060404,38.2087895 32.2655904,37.6082029 32.7615522,37.2510701" id="Fill-1" fill="#5856D6"></path>
        </g>
    </g>
</svg>