<?xml version="1.0" encoding="UTF-8"?>
<svg width="270px" height="62px" viewBox="0 0 270 62" version="1.1" xmlns="http://www.w3.org/2000/svg" xmlns:xlink="http://www.w3.org/1999/xlink">
    <!-- Generator: Sketch 56.2 (81672) - https://sketch.com -->
    <title>Logos / logo_verdoc_white</title>
    <desc>Created with Sketch.</desc>
    <g id="Logos-/-logo_verdoc_white" stroke="none" stroke-width="1" fill="none" fill-rule="evenodd">
        <path d="M72.423816,34.0524738 C72.590064,37.0749776 73.603123,39.4100367 75.4630232,41.0577211 C77.3229234,42.7054055 79.8633635,43.5292354 83.0844197,43.5292354 C85.5157977,43.5292354 88.1653364,42.8733199 91.0331155,41.5614693 C93.9008946,40.2496186 95.6360828,39.5937031 96.238732,39.5937031 C96.8621622,39.5937031 97.3816796,39.7931015 97.7972998,40.191904 C98.2129199,40.5907066 98.4207269,41.0839551 98.4207269,41.6716642 C98.4207269,42.2803629 98.2025296,42.8365792 97.7661284,43.3403298 C97.3297273,43.8440805 96.6335739,44.3373289 95.6776476,44.82009 C93.5995468,45.8485809 91.4539399,46.6356794 89.2407625,47.1814093 C87.0275852,47.7271392 84.8300266,48 82.6480207,48 C77.9099509,48 74.1174739,46.6199538 71.2704758,43.8598201 C68.4234777,41.0996863 67,37.4423016 67,32.8875562 C67,28.2488524 68.5066005,24.4917685 71.5198466,21.6161919 C74.5330928,18.7406153 78.4606444,17.3028486 83.3026192,17.3028486 C87.6874119,17.3028486 91.3240337,18.6461635 94.2125938,21.3328336 C97.1011539,24.0195037 98.5454123,27.2728445 98.5454123,31.0929535 C98.5454123,32.2683717 98.3012391,33.0554703 97.8128855,33.4542729 C97.3245318,33.8530755 95.9997624,34.0524738 93.8385376,34.0524738 L72.423816,34.0524738 Z M72.5796727,29.928036 L92.8722255,29.928036 C92.5605104,27.4302724 91.5266708,25.4205473 89.7706756,23.8988006 C88.0146804,22.3770539 85.8586832,21.6161919 83.3026192,21.6161919 C80.5387452,21.6161919 78.2113072,22.3508172 76.3202355,23.82009 C74.4291637,25.2893627 73.182322,27.3253243 72.5796727,29.928036 Z M118.214538,42.7736132 L128.563428,42.7736132 C129.373888,42.7736132 129.971333,42.9467749 130.355781,43.2931034 C130.74023,43.639432 130.932451,44.190401 130.932451,44.946027 C130.932451,45.806601 130.75062,46.3995486 130.386953,46.7248876 C130.023285,47.0502265 129.353107,47.2128936 128.3764,47.2128936 L107.990333,47.2128936 C107.179874,47.2128936 106.566843,47.0239899 106.151223,46.6461769 C105.735603,46.2683639 105.527796,45.701653 105.527796,44.946027 C105.527796,44.2113906 105.740798,43.665669 106.166809,43.3088456 C106.59282,42.9520222 107.252607,42.7736132 108.14619,42.7736132 L113.570006,42.7736132 L113.570006,22.5922039 L111.450354,22.5922039 C109.434596,22.5922039 108.177364,22.4295369 107.67862,22.1041979 C107.179875,21.7788589 106.930507,21.1859113 106.930507,20.3253373 C106.930507,19.590701 107.133119,19.039732 107.538349,18.6724138 C107.943578,18.3050956 108.561804,18.1214393 109.393044,18.1214393 L116.500113,18.1214393 C117.061201,18.1214393 117.487205,18.2316331 117.778139,18.452024 C118.069073,18.6724149 118.214538,18.9925016 118.214538,19.4122939 L118.214538,24.7646177 C120.188734,22.2668541 122.246023,20.4093014 124.386467,19.191904 C126.52691,17.9745067 128.833568,17.3658171 131.306508,17.3658171 C133.156017,17.3658171 134.652227,17.7436244 135.795183,18.4992504 C136.938138,19.2548763 137.509607,20.2308786 137.509607,21.4272864 C137.509607,22.2039019 137.223873,22.8913014 136.652395,23.4895052 C136.080917,24.0877091 135.452301,24.3868066 134.766528,24.3868066 C134.288565,24.3868066 133.483313,24.0667198 132.350748,23.4265367 C131.218183,22.7863536 130.205124,22.4662669 129.311541,22.4662669 C127.690622,22.4662669 125.98141,23.0487198 124.183853,24.2136432 C122.386295,25.3785665 120.396544,27.2203772 118.214538,29.7391304 L118.214538,42.7736132 Z M168.961506,47.2128936 C168.525104,47.2128936 168.218589,47.1026998 168.041951,46.8823088 C167.865312,46.6619179 167.776994,46.2368847 167.776994,45.6071964 L167.776994,43.0254873 C166.530134,44.599708 164.971581,45.8223345 163.101291,46.6934033 C161.231,47.5644721 159.204882,48 157.022876,48 C153.095266,48 149.806721,46.5884699 147.157142,43.7653673 C144.507564,40.9422647 143.182794,37.4318051 143.182794,33.2338831 C143.182794,28.8890337 144.595882,25.2736276 147.422099,22.3875562 C150.248316,19.5014848 153.770644,18.0584708 157.989188,18.0584708 C160.129632,18.0584708 162.051847,18.4415254 163.755889,19.2076462 C165.459932,19.9737669 166.924971,21.1019416 168.15105,22.5922039 L168.15105,10.5337331 L166.498969,10.5337331 C164.691021,10.5337331 163.522107,10.3710661 162.992191,10.0457271 C162.462275,9.72038818 162.197321,9.12744058 162.197321,8.26686657 C162.197321,7.5112406 162.410324,6.94452963 162.836334,6.56671664 C163.262345,6.18890366 163.880571,6 164.69103,6 L171.081158,6 C171.704588,6 172.156568,6.10494648 172.437112,6.31484258 C172.717655,6.52473868 172.857925,6.85007276 172.857925,7.29085457 L172.857925,42.7736132 L174.260636,42.7736132 C175.278906,42.7736132 176.01662,42.9467749 176.473802,43.2931034 C176.930985,43.639432 177.159572,44.190401 177.159572,44.946027 C177.159572,45.6596737 176.962156,46.2158901 176.567317,46.6146927 C176.172477,47.0134952 175.64257,47.2128936 174.977577,47.2128936 L168.961506,47.2128936 Z M148.544267,33.0764618 C148.544267,35.973028 149.469008,38.3448184 151.318518,40.191904 C153.168028,42.0389897 155.516247,42.9625187 158.363245,42.9625187 C161.231024,42.9625187 163.589633,42.0022585 165.439142,40.0817091 C167.288652,38.1611598 168.213393,35.7211542 168.213393,32.7616192 C168.213393,29.8440634 167.293847,27.4407891 165.454728,25.5517241 C163.615609,23.6626592 161.251805,22.7181409 158.363245,22.7181409 C155.433122,22.7181409 153.064123,23.6731539 151.256175,25.5832084 C149.448228,27.4932629 148.544267,29.9909891 148.544267,33.0764618 Z M197.888524,43.5922039 C201.088799,43.5922039 203.712362,42.5689757 205.759291,40.5224888 C207.806221,38.4760018 208.82967,35.8680818 208.82967,32.6986507 C208.82967,29.5292195 207.801026,26.9108049 205.743706,24.8433283 C203.686386,22.7758517 201.068018,21.7421289 197.888524,21.7421289 C194.70903,21.7421289 192.095857,22.7758517 190.048928,24.8433283 C188.001999,26.9108049 186.978549,29.5292195 186.978549,32.6986507 C186.978549,35.8890714 187.996804,38.5022387 190.033342,40.5382309 C192.069881,42.5742231 194.688249,43.5922039 197.888524,43.5922039 Z M214.253486,32.6986507 C214.253486,37.1904273 212.736495,40.8635539 209.702468,43.7181409 C206.668441,46.5727279 202.730499,48 197.888524,48 C193.06733,48 189.139779,46.5727279 186.105751,43.7181409 C183.071724,40.8635539 181.554734,37.1904273 181.554734,32.6986507 C181.554734,28.2068741 183.071724,24.5389947 186.105751,21.6949025 C189.139779,18.8508104 193.06733,17.4287856 197.888524,17.4287856 C202.709718,17.4287856 206.642465,18.8560577 209.686882,21.7106447 C212.7313,24.5652317 214.253486,28.2278637 214.253486,32.6986507 Z M245.580699,20.0104948 L245.580699,19.8845577 C245.580699,19.1919006 245.778115,18.6829102 246.172955,18.3575712 C246.567794,18.0322323 247.180824,17.8695652 248.012065,17.8695652 C248.864086,17.8695652 249.451141,18.1214368 249.773246,18.6251874 C250.095352,19.1289381 250.256402,20.1679082 250.256402,21.7421289 L250.256402,27.5982009 C250.256402,28.3748165 250.058986,28.9572694 249.664146,29.3455772 C249.269307,29.733885 248.677057,29.928036 247.887379,29.928036 C247.326292,29.928036 246.843141,29.7653689 246.437911,29.44003 C246.032681,29.114691 245.53914,28.4377863 244.957272,27.4092954 C243.959783,25.7091369 242.749308,24.4235426 241.325809,23.5524738 C239.90231,22.6814049 238.26583,22.2458771 236.41632,22.2458771 C233.174483,22.2458771 230.54053,23.2113846 228.514381,25.1424288 C226.488233,27.0734729 225.475174,29.5711991 225.475174,32.6356822 C225.475174,35.7631341 226.446672,38.3185808 228.389696,40.302099 C230.33272,42.2856171 232.831599,43.2773613 235.886407,43.2773613 C237.278735,43.2773613 238.603504,43.0832103 239.860755,42.6949025 C241.118006,42.3065948 242.307701,41.7241418 243.429875,40.9475262 C243.824714,40.6956509 244.354622,40.307349 245.019614,39.7826087 C246.37038,38.6701594 247.430195,38.113943 248.199093,38.113943 C248.843304,38.113943 249.368017,38.3185887 249.773246,38.7278861 C250.178476,39.1371835 250.381088,39.6671632 250.381088,40.3178411 C250.381088,41.9760203 248.827731,43.6709059 245.72097,45.4025487 C242.614209,47.1341916 239.315274,48 235.824064,48 C231.314586,48 227.558475,46.541244 224.555619,43.6236882 C221.552764,40.7061323 220.051358,37.0644896 220.051358,32.6986507 C220.051358,28.3328118 221.547568,24.6859217 224.540034,21.7578711 C227.532499,18.8298204 231.273024,17.3658171 235.761722,17.3658171 C237.341078,17.3658171 238.925606,17.5809574 240.515353,18.0112444 C242.105101,18.4415314 243.793532,19.1079415 245.580699,20.0104948 Z M260.960712,43.8244003 C260.960712,42.7499946 261.33233,41.8684442 262.075575,41.1797226 C262.818821,40.4910011 263.783662,40.1466454 264.970128,40.1466454 C266.183869,40.1466454 267.158938,40.4841139 267.895365,41.1590611 C268.631792,41.8340082 269,42.7224458 269,43.8244003 C269,44.9263548 268.628383,45.8147924 267.885137,46.4897395 C267.141891,47.1646867 266.170231,47.5021552 264.970128,47.5021552 C263.770025,47.5021552 262.801774,47.1646867 262.065347,46.4897395 C261.32892,45.8147924 260.960712,44.9263548 260.960712,43.8244003 Z" id="Shape" fill="#FFFFFF" fill-rule="nonzero"></path>
        <g id="Logos-/-logo_v_white" transform="translate(0.000000, 1.000000)" fill="#FFFFFF">
            <path d="M55.1436944,26.925 C54.6900316,24.7688261 53.2766339,22.9295136 51.3967481,21.778125 C48.2418976,19.8466997 41.1868037,15.5305681 36.0329454,12.375 C32.3185662,10.0996489 27.6487291,10.0996489 23.933382,12.375 L8.36532223,21.909375 C6.74772319,22.8993762 5.49991639,24.4807649 4.95394041,26.465625 C4.91184077,26.6185392 4.87487164,26.7708817 4.84293316,26.925 L8.71236018,5.55809937 C9.19789834,2.88261339 11.5277748,0.9375 14.2469608,0.9375 L45.7132591,0.9375 C48.4298737,0.9375 50.7583193,2.87902503 51.2466381,5.55139095 L55.1436944,26.925 Z" id="Path"></path>
            <path d="M31.7047279,36.0494227 C32.587743,35.4136908 33.1017805,34.2960487 32.8613122,33.0820245 C32.6364208,31.93907 31.6910981,31.0132184 30.5452229,30.8068246 C28.6925462,30.4719213 27.0793641,31.886498 27.0793641,33.6778407 C27.0793641,34.632899 27.5388825,35.4818397 28.2476311,36.0143747 C28.7373297,36.3814053 29.0264758,36.9548296 29.0264758,37.5652492 L29.0264758,58.0196572 C29.0264758,58.8257614 28.3732198,59.479991 27.5661421,59.479991 C27.1153857,59.479991 26.6889682,59.2706765 26.4124784,58.914355 L6.49936737,33.2465555 C4.92999537,31.2312949 4.27576585,28.583223 4.95336071,26.1162325 C5.49952553,24.1311522 6.74762411,22.5510711 8.3656739,21.5609648 L23.9338052,12.0201176 C27.6459736,9.74491765 32.3151474,9.74297054 36.0282894,12.0162234 C41.5269327,15.3857002 49.1927113,20.0840806 51.9751339,21.7887769 C52.7510579,22.2638721 53.4461768,22.8772123 53.9339282,23.6453478 C56.0144171,26.917469 55.5879996,30.5235198 53.6700946,32.9885632 L33.5885584,58.9085137 C33.0939921,59.5452192 32.1769025,59.6620459 31.5392234,59.1684531 C31.182902,58.8909897 30.9735875,58.4655458 30.9735875,58.0138159 L30.9735875,37.5671963 C30.9735875,36.9762479 31.2247649,36.395035 31.7047279,36.0494227" id="Fill-1" fill-opacity="0.93"></path>
        </g>
        <path d="M72.423816,34.0524738 C72.590064,37.0749776 73.603123,39.4100367 75.4630232,41.0577211 C77.3229234,42.7054055 79.8633635,43.5292354 83.0844197,43.5292354 C85.5157977,43.5292354 88.1653364,42.8733199 91.0331155,41.5614693 C93.9008946,40.2496186 95.6360828,39.5937031 96.238732,39.5937031 C96.8621622,39.5937031 97.3816796,39.7931015 97.7972998,40.191904 C98.2129199,40.5907066 98.4207269,41.0839551 98.4207269,41.6716642 C98.4207269,42.2803629 98.2025296,42.8365792 97.7661284,43.3403298 C97.3297273,43.8440805 96.6335739,44.3373289 95.6776476,44.82009 C93.5995468,45.8485809 91.4539399,46.6356794 89.2407625,47.1814093 C87.0275852,47.7271392 84.8300266,48 82.6480207,48 C77.9099509,48 74.1174739,46.6199538 71.2704758,43.8598201 C68.4234777,41.0996863 67,37.4423016 67,32.8875562 C67,28.2488524 68.5066005,24.4917685 71.5198466,21.6161919 C74.5330928,18.7406153 78.4606444,17.3028486 83.3026192,17.3028486 C87.6874119,17.3028486 91.3240337,18.6461635 94.2125938,21.3328336 C97.1011539,24.0195037 98.5454123,27.2728445 98.5454123,31.0929535 C98.5454123,32.2683717 98.3012391,33.0554703 97.8128855,33.4542729 C97.3245318,33.8530755 95.9997624,34.0524738 93.8385376,34.0524738 L72.423816,34.0524738 Z M72.5796727,29.928036 L92.8722255,29.928036 C92.5605104,27.4302724 91.5266708,25.4205473 89.7706756,23.8988006 C88.0146804,22.3770539 85.8586832,21.6161919 83.3026192,21.6161919 C80.5387452,21.6161919 78.2113072,22.3508172 76.3202355,23.82009 C74.4291637,25.2893627 73.182322,27.3253243 72.5796727,29.928036 Z M118.214538,42.7736132 L128.563428,42.7736132 C129.373888,42.7736132 129.971333,42.9467749 130.355781,43.2931034 C130.74023,43.639432 130.932451,44.190401 130.932451,44.946027 C130.932451,45.806601 130.75062,46.3995486 130.386953,46.7248876 C130.023285,47.0502265 129.353107,47.2128936 128.3764,47.2128936 L107.990333,47.2128936 C107.179874,47.2128936 106.566843,47.0239899 106.151223,46.6461769 C105.735603,46.2683639 105.527796,45.701653 105.527796,44.946027 C105.527796,44.2113906 105.740798,43.665669 106.166809,43.3088456 C106.59282,42.9520222 107.252607,42.7736132 108.14619,42.7736132 L113.570006,42.7736132 L113.570006,22.5922039 L111.450354,22.5922039 C109.434596,22.5922039 108.177364,22.4295369 107.67862,22.1041979 C107.179875,21.7788589 106.930507,21.1859113 106.930507,20.3253373 C106.930507,19.590701 107.133119,19.039732 107.538349,18.6724138 C107.943578,18.3050956 108.561804,18.1214393 109.393044,18.1214393 L116.500113,18.1214393 C117.061201,18.1214393 117.487205,18.2316331 117.778139,18.452024 C118.069073,18.6724149 118.214538,18.9925016 118.214538,19.4122939 L118.214538,24.7646177 C120.188734,22.2668541 122.246023,20.4093014 124.386467,19.191904 C126.52691,17.9745067 128.833568,17.3658171 131.306508,17.3658171 C133.156017,17.3658171 134.652227,17.7436244 135.795183,18.4992504 C136.938138,19.2548763 137.509607,20.2308786 137.509607,21.4272864 C137.509607,22.2039019 137.223873,22.8913014 136.652395,23.4895052 C136.080917,24.0877091 135.452301,24.3868066 134.766528,24.3868066 C134.288565,24.3868066 133.483313,24.0667198 132.350748,23.4265367 C131.218183,22.7863536 130.205124,22.4662669 129.311541,22.4662669 C127.690622,22.4662669 125.98141,23.0487198 124.183853,24.2136432 C122.386295,25.3785665 120.396544,27.2203772 118.214538,29.7391304 L118.214538,42.7736132 Z M168.961506,47.2128936 C168.525104,47.2128936 168.218589,47.1026998 168.041951,46.8823088 C167.865312,46.6619179 167.776994,46.2368847 167.776994,45.6071964 L167.776994,43.0254873 C166.530134,44.599708 164.971581,45.8223345 163.101291,46.6934033 C161.231,47.5644721 159.204882,48 157.022876,48 C153.095266,48 149.806721,46.5884699 147.157142,43.7653673 C144.507564,40.9422647 143.182794,37.4318051 143.182794,33.2338831 C143.182794,28.8890337 144.595882,25.2736276 147.422099,22.3875562 C150.248316,19.5014848 153.770644,18.0584708 157.989188,18.0584708 C160.129632,18.0584708 162.051847,18.4415254 163.755889,19.2076462 C165.459932,19.9737669 166.924971,21.1019416 168.15105,22.5922039 L168.15105,10.5337331 L166.498969,10.5337331 C164.691021,10.5337331 163.522107,10.3710661 162.992191,10.0457271 C162.462275,9.72038818 162.197321,9.12744058 162.197321,8.26686657 C162.197321,7.5112406 162.410324,6.94452963 162.836334,6.56671664 C163.262345,6.18890366 163.880571,6 164.69103,6 L171.081158,6 C171.704588,6 172.156568,6.10494648 172.437112,6.31484258 C172.717655,6.52473868 172.857925,6.85007276 172.857925,7.29085457 L172.857925,42.7736132 L174.260636,42.7736132 C175.278906,42.7736132 176.01662,42.9467749 176.473802,43.2931034 C176.930985,43.639432 177.159572,44.190401 177.159572,44.946027 C177.159572,45.6596737 176.962156,46.2158901 176.567317,46.6146927 C176.172477,47.0134952 175.64257,47.2128936 174.977577,47.2128936 L168.961506,47.2128936 Z M148.544267,33.0764618 C148.544267,35.973028 149.469008,38.3448184 151.318518,40.191904 C153.168028,42.0389897 155.516247,42.9625187 158.363245,42.9625187 C161.231024,42.9625187 163.589633,42.0022585 165.439142,40.0817091 C167.288652,38.1611598 168.213393,35.7211542 168.213393,32.7616192 C168.213393,29.8440634 167.293847,27.4407891 165.454728,25.5517241 C163.615609,23.6626592 161.251805,22.7181409 158.363245,22.7181409 C155.433122,22.7181409 153.064123,23.6731539 151.256175,25.5832084 C149.448228,27.4932629 148.544267,29.9909891 148.544267,33.0764618 Z M197.888524,43.5922039 C201.088799,43.5922039 203.712362,42.5689757 205.759291,40.5224888 C207.806221,38.4760018 208.82967,35.8680818 208.82967,32.6986507 C208.82967,29.5292195 207.801026,26.9108049 205.743706,24.8433283 C203.686386,22.7758517 201.068018,21.7421289 197.888524,21.7421289 C194.70903,21.7421289 192.095857,22.7758517 190.048928,24.8433283 C188.001999,26.9108049 186.978549,29.5292195 186.978549,32.6986507 C186.978549,35.8890714 187.996804,38.5022387 190.033342,40.5382309 C192.069881,42.5742231 194.688249,43.5922039 197.888524,43.5922039 Z M214.253486,32.6986507 C214.253486,37.1904273 212.736495,40.8635539 209.702468,43.7181409 C206.668441,46.5727279 202.730499,48 197.888524,48 C193.06733,48 189.139779,46.5727279 186.105751,43.7181409 C183.071724,40.8635539 181.554734,37.1904273 181.554734,32.6986507 C181.554734,28.2068741 183.071724,24.5389947 186.105751,21.6949025 C189.139779,18.8508104 193.06733,17.4287856 197.888524,17.4287856 C202.709718,17.4287856 206.642465,18.8560577 209.686882,21.7106447 C212.7313,24.5652317 214.253486,28.2278637 214.253486,32.6986507 Z M245.580699,20.0104948 L245.580699,19.8845577 C245.580699,19.1919006 245.778115,18.6829102 246.172955,18.3575712 C246.567794,18.0322323 247.180824,17.8695652 248.012065,17.8695652 C248.864086,17.8695652 249.451141,18.1214368 249.773246,18.6251874 C250.095352,19.1289381 250.256402,20.1679082 250.256402,21.7421289 L250.256402,27.5982009 C250.256402,28.3748165 250.058986,28.9572694 249.664146,29.3455772 C249.269307,29.733885 248.677057,29.928036 247.887379,29.928036 C247.326292,29.928036 246.843141,29.7653689 246.437911,29.44003 C246.032681,29.114691 245.53914,28.4377863 244.957272,27.4092954 C243.959783,25.7091369 242.749308,24.4235426 241.325809,23.5524738 C239.90231,22.6814049 238.26583,22.2458771 236.41632,22.2458771 C233.174483,22.2458771 230.54053,23.2113846 228.514381,25.1424288 C226.488233,27.0734729 225.475174,29.5711991 225.475174,32.6356822 C225.475174,35.7631341 226.446672,38.3185808 228.389696,40.302099 C230.33272,42.2856171 232.831599,43.2773613 235.886407,43.2773613 C237.278735,43.2773613 238.603504,43.0832103 239.860755,42.6949025 C241.118006,42.3065948 242.307701,41.7241418 243.429875,40.9475262 C243.824714,40.6956509 244.354622,40.307349 245.019614,39.7826087 C246.37038,38.6701594 247.430195,38.113943 248.199093,38.113943 C248.843304,38.113943 249.368017,38.3185887 249.773246,38.7278861 C250.178476,39.1371835 250.381088,39.6671632 250.381088,40.3178411 C250.381088,41.9760203 248.827731,43.6709059 245.72097,45.4025487 C242.614209,47.1341916 239.315274,48 235.824064,48 C231.314586,48 227.558475,46.541244 224.555619,43.6236882 C221.552764,40.7061323 220.051358,37.0644896 220.051358,32.6986507 C220.051358,28.3328118 221.547568,24.6859217 224.540034,21.7578711 C227.532499,18.8298204 231.273024,17.3658171 235.761722,17.3658171 C237.341078,17.3658171 238.925606,17.5809574 240.515353,18.0112444 C242.105101,18.4415314 243.793532,19.1079415 245.580699,20.0104948 Z M260.960712,43.8244003 C260.960712,42.7499946 261.33233,41.8684442 262.075575,41.1797226 C262.818821,40.4910011 263.783662,40.1466454 264.970128,40.1466454 C266.183869,40.1466454 267.158938,40.4841139 267.895365,41.1590611 C268.631792,41.8340082 269,42.7224458 269,43.8244003 C269,44.9263548 268.628383,45.8147924 267.885137,46.4897395 C267.141891,47.1646867 266.170231,47.5021552 264.970128,47.5021552 C263.770025,47.5021552 262.801774,47.1646867 262.065347,46.4897395 C261.32892,45.8147924 260.960712,44.9263548 260.960712,43.8244003 Z" id="erdoc." fill="#FFFFFF" fill-rule="nonzero"></path>
    </g>
</svg>