<?xml version="1.0" encoding="UTF-8"?>
<svg width="64px" height="64px" viewBox="0 0 64 64" version="1.1" xmlns="http://www.w3.org/2000/svg" xmlns:xlink="http://www.w3.org/1999/xlink">
    <!-- Generator: Sketch 56.2 (81672) - https://sketch.com -->
    <title>Logos / Social / logo_facebook</title>
    <desc>Created with Sketch.</desc>
    <g id="Logos-/-Social-/-logo_facebook" stroke="none" stroke-width="1" fill="none" fill-rule="evenodd">
        <path d="M59.514062,62.9324729 C61.4014574,62.9324729 62.9319922,61.401938 62.9319922,59.514062 L62.9319922,4.41817054 C62.9319922,2.53005426 61.4016977,1 59.514062,1 L4.41817054,1 C2.53005426,1 1,2.53005426 1,4.41817054 L1,59.514062 C1,61.4016977 2.52981395,62.9324729 4.41817054,62.9324729 L59.514062,62.9324729 Z" id="Blue_1_" fill="#3C5A99" fill-rule="nonzero"></path>
        <path d="M43.7321783,62.9324729 L43.7321783,38.9488062 L51.7823256,38.9488062 L52.9877209,29.6019457 L43.7321783,29.6019457 L43.7321783,23.6345659 C43.7321783,20.9284341 44.4836279,19.0842946 48.364155,19.0842946 L53.3135814,19.0821318 L53.3135814,10.7222248 C52.4575969,10.6083178 49.5195659,10.3538295 46.1013953,10.3538295 C38.9653876,10.3538295 34.0798837,14.7096899 34.0798837,22.7088915 L34.0798837,29.6019457 L26.0090698,29.6019457 L26.0090698,38.9488062 L34.0798837,38.9488062 L34.0798837,62.9324729 L43.7321783,62.9324729 Z" id="f" fill="#FFFFFF" fill-rule="nonzero"></path>
    </g>
</svg>