<?xml version="1.0" encoding="UTF-8"?>
<svg width="64px" height="64px" viewBox="0 0 64 64" version="1.1" xmlns="http://www.w3.org/2000/svg" xmlns:xlink="http://www.w3.org/1999/xlink">
    <!-- Generator: Sketch 56.2 (81672) - https://sketch.com -->
    <title>Logos / Social / logo_line</title>
    <desc>Created with Sketch.</desc>
    <g id="Logos-/-Social-/-logo_line" stroke="none" stroke-width="1" fill="none" fill-rule="evenodd">
        <path d="M51.7860398,63.0017311 L12.3005067,63.0017311 C6.10068172,63.009943 1.00909653,57.9893267 1,51.7877708 L1,12.3022377 C0.992219782,6.10024899 6.01326882,1.00823106 12.2139593,1 L51.6999251,1 C57.9010483,0.992219784 62.9904698,6.01240335 63,12.2152575 L63,51.7012233 C63.0086448,57.903212 57.9884612,62.9930663 51.7860398,63.0017311" id="path7960" fill="#00B900" fill-rule="nonzero" transform="translate(32.000001, 32.000866) scale(-1, 1) rotate(-180.000000) translate(-32.000001, -32.000866) "></path>
        <path d="M54.4728192,29.2746654 C54.4728192,33.3172957 52.905878,36.9579133 49.6343852,40.5453042 L49.6352507,40.5453042 C44.8993754,45.9964939 34.3085667,52.6359799 31.8990863,53.6511812 C29.4904713,54.6663825 29.8457485,53.0051047 29.9439799,52.4343244 C30.0011012,52.0950585 30.2659363,50.502153 30.2659363,50.502153 C30.342098,49.9257472 30.4208562,49.0317122 30.1932365,48.460932 C29.9400852,47.8325976 28.939597,47.5063138 28.2043766,47.347932 C17.3565219,45.9138411 9.32578609,38.3301228 9.32578609,29.2746654 C9.32578609,19.173715 19.4531334,10.9560368 31.8990863,10.9560368 C44.3467701,10.9560368 54.4728192,19.173715 54.4728192,29.2746654 Z M27.3127647,24.3935619 L25.7293795,24.3935619 C25.486614,24.3935619 25.2892859,24.5904573 25.2892859,24.8323574 L25.2892859,34.6684726 C25.2892859,34.9108054 25.486614,35.107268 25.7293795,35.107268 L27.3127647,35.107268 C27.5555303,35.107268 27.7524257,34.9108054 27.7524257,34.6684726 L27.7524257,24.8323574 C27.7524257,24.5904573 27.5555303,24.3935619 27.3127647,24.3935619 Z M38.2112048,24.3935619 L36.6278196,24.3935619 C36.3850541,24.3935619 36.1881587,24.5904573 36.1881587,24.8323574 L36.1881587,30.6760397 L31.6807686,24.5887264 C31.670383,24.5731478 31.6586991,24.5584348 31.6465824,24.5441545 L31.6435533,24.541558 C31.6348985,24.5316051 31.6262438,24.5229503 31.6171563,24.5142956 C31.6145599,24.5116992 31.6119634,24.5095355 31.6089343,24.5069391 C31.6015778,24.5000153 31.5937885,24.4935242 31.5855665,24.4874659 C31.5821046,24.484004 31.5782099,24.4814076 31.5743153,24.4783784 C31.566526,24.4731856 31.5591695,24.46756 31.5513802,24.4627999 C31.5470529,24.4597707 31.5427255,24.4571743 31.5379654,24.4550106 C31.5301761,24.4502505 31.5223869,24.4454904 31.5145976,24.4415958 C31.5098375,24.4394321 31.5055101,24.4368356 31.50075,24.4351047 C31.492528,24.4312101 31.484306,24.4273154 31.4756512,24.4242863 C31.4704584,24.4225553 31.466131,24.4208244 31.4613709,24.4190934 C31.4527162,24.4160643 31.4440614,24.4130351 31.434974,24.4108714 C31.4302138,24.4091405 31.425021,24.408275 31.4198282,24.406544 C31.4111734,24.4048131 31.4029514,24.4026494 31.3947294,24.4009185 C31.3886711,24.400053 31.38218,24.3991875 31.3761217,24.3987548 C31.3683324,24.3970238 31.3605432,24.3965911 31.3527539,24.3957256 C31.3453974,24.3948601 31.3380408,24.3948601 31.3302516,24.3944274 C31.324626,24.3944274 31.3202986,24.3935619 31.314673,24.3935619 L29.7317206,24.3935619 C29.488955,24.3935619 29.2916269,24.5904573 29.2916269,24.8323574 L29.2916269,34.6684726 C29.2916269,34.9108054 29.488955,35.107268 29.7317206,35.107268 L31.314673,35.107268 C31.5578713,35.107268 31.7547667,34.9108054 31.7547667,34.6684726 L31.7547667,28.8265212 L36.2677823,34.9216238 C36.2989394,34.965763 36.337453,35.0016802 36.3794285,35.0302408 C36.3807267,35.0311063 36.3824577,35.0324045 36.3837559,35.0337027 C36.3928434,35.0393283 36.4019308,35.0449539 36.4110183,35.0501467 C36.4153457,35.0527432 36.4192403,35.0544741 36.4235677,35.0566378 C36.4300588,35.0605324 36.4374153,35.0639943 36.4443391,35.0670235 C36.4516956,35.0700527 36.4581867,35.0730818 36.4659759,35.076111 C36.4703033,35.0778419 36.4746307,35.0795729 36.4789581,35.0808711 C36.4893437,35.0847657 36.498864,35.0877949 36.5088169,35.090824 C36.5109806,35.090824 36.5131443,35.0916895 36.515308,35.0921222 C36.5512252,35.1016425 36.5888733,35.107268 36.6278196,35.107268 L38.2112048,35.107268 C38.4544031,35.107268 38.6508658,34.9108054 38.6508658,34.6684726 L38.6508658,24.8323574 C38.6508658,24.5904573 38.4544031,24.3935619 38.2112048,24.3935619 Z M23.4959808,32.644303 L19.1937081,32.644303 L19.1937081,24.8329648 C19.1937081,24.5901993 18.9968127,24.3933039 18.7544799,24.3933039 L17.170662,24.3933039 C16.9278964,24.3933039 16.731001,24.5901993 16.731001,24.8329648 L16.731001,34.6682146 C16.731001,34.7863518 16.7781694,34.8932379 16.8538984,34.971996 C16.8556293,34.9741597 16.8573603,34.9763234 16.8599567,34.9784871 C16.8621204,34.9806508 16.8642841,34.9823817 16.8664478,34.9845454 C16.9456387,35.0607071 17.052092,35.1074428 17.1702292,35.1074428 L23.4959808,35.1074428 C23.7387463,35.1074428 23.9347762,34.9101146 23.9347762,34.6673491 L23.9347762,33.0839639 C23.9347762,32.8411984 23.7387463,32.644303 23.4959808,32.644303 Z M46.955223,26.8564417 C47.1979885,26.8564417 47.3940184,26.6599791 47.3940184,26.4167808 L47.3940184,24.8333956 C47.3940184,24.59063 47.1979885,24.3933019 46.955223,24.3933019 L40.6290387,24.3933019 C40.5104687,24.3933019 40.4035826,24.440903 40.3243918,24.5174975 C40.3226608,24.5192284 40.3204971,24.5205266 40.3191989,24.5222576 C40.3166025,24.524854 40.3144388,24.5274504 40.3122751,24.5300468 C40.2369789,24.608805 40.1902432,24.7152583 40.1902432,24.8329628 L40.1902432,34.6682126 C40.1902432,34.7863498 40.2374116,34.8932359 40.3131406,34.971994 C40.3148715,34.9741577 40.3170352,34.9767541 40.3191989,34.9784851 C40.3209299,34.9806488 40.3235263,34.9828125 40.32569,34.9845434 C40.4044481,35.0602724 40.5113342,35.1074408 40.6290387,35.1074408 L46.955223,35.1074408 C47.1979885,35.1074408 47.3940184,34.9101126 47.3940184,34.6677798 L47.3940184,33.0839619 C47.3940184,32.8416291 47.1979885,32.644301 46.955223,32.644301 L42.653383,32.644301 L42.653383,30.9817249 L46.955223,30.9817249 C47.1979885,30.9817249 47.3940184,30.7848295 47.3940184,30.5420639 L47.3940184,28.9586787 C47.3940184,28.7159132 47.1979885,28.5185851 46.955223,28.5185851 L42.653383,28.5185851 L42.653383,26.8564417 L46.955223,26.8564417 Z" id="Shape" fill="#FFFFFF" fill-rule="nonzero"></path>
    </g>
</svg>