<svg xmlns="http://www.w3.org/2000/svg" xmlns:xlink="http://www.w3.org/1999/xlink" width="24" height="9">
  <defs>
    <path id="prefix__ic_api_primary-a" d="M2.413 4.5c.198.132.334.286.41.462.075.175.113.478.113.907v.6c0 .267.021.435.064.504s.124.116.244.14c.029.008.072.016.129.024.294.046.44.196.44.45a.38.38 0 0 1-.128.3.5.5 0 0 1-.343.113c-.182 0-.359-.031-.53-.093a1.183 1.183 0 0 1-.423-.255.956.956 0 0 1-.26-.45c-.05-.184-.075-.498-.075-.944v-.47c0-.486-.216-.765-.648-.838a.16.16 0 0 0-.04-.008.45.45 0 0 1-.276-.138C1.03 4.734 1 4.632 1 4.5c0-.116.025-.208.076-.275a.43.43 0 0 1 .244-.146c.05-.017.121-.034.215-.053.346-.067.519-.335.519-.802v-.482c0-.413.02-.703.058-.869a1.15 1.15 0 0 1 .2-.435 1.08 1.08 0 0 1 .438-.323c.184-.077.386-.115.607-.115a.48.48 0 0 1 .332.111.375.375 0 0 1 .125.294c0 .254-.158.407-.472.458a.636.636 0 0 0-.063.008c-.13.022-.22.07-.27.148-.049.077-.073.252-.073.524v.596c0 .405-.04.702-.117.891a1.02 1.02 0 0 1-.406.47zm6.756.98h.066c.14 0 .247.037.32.112.073.074.11.183.11.326 0 .16-.04.274-.116.344-.077.07-.204.105-.38.105H7.994c-.18 0-.307-.034-.383-.103-.075-.069-.113-.184-.113-.346 0-.157.038-.269.113-.336.076-.068.203-.102.383-.102h.136l-.16-.474H6.284l-.167.474h.136c.177 0 .304.035.38.104.077.068.116.18.116.334 0 .16-.039.274-.115.344-.077.07-.204.105-.38.105H5.245c-.18 0-.307-.035-.382-.105-.076-.07-.113-.185-.113-.344 0-.143.036-.252.109-.326.073-.075.18-.112.32-.112h.066l1.046-3.022H5.98c-.177 0-.304-.035-.38-.105-.077-.07-.116-.184-.116-.34 0-.16.039-.274.115-.345.077-.07.204-.105.381-.105h1.463c.232 0 .395.13.488.389v.012L9.17 5.48zM7.123 2.458l-.565 1.71h1.131l-.566-1.71zm4.348 2.192v.83h.402c.17 0 .29.034.361.102.072.067.107.18.107.336 0 .16-.036.274-.109.344-.073.07-.192.105-.359.105h-1.35c-.172 0-.295-.035-.369-.105-.074-.07-.111-.185-.111-.344 0-.143.035-.252.105-.326.07-.075.173-.112.308-.112h.067V2.458h-.067c-.132 0-.234-.038-.306-.115a.47.47 0 0 1-.107-.33c0-.157.037-.271.113-.343.075-.071.198-.107.367-.107h1.612c.637 0 1.12.127 1.446.38.326.255.49.629.49 1.123 0 .521-.163.915-.488 1.183-.326.267-.808.4-1.448.4h-.664zm0-2.192v1.28h.554c.307 0 .538-.054.693-.162.155-.108.232-.27.232-.486a.533.533 0 0 0-.24-.468c-.16-.109-.388-.164-.685-.164h-.554zm5.827 0V5.48h.656c.177 0 .303.035.38.104.077.068.115.18.115.334 0 .156-.039.27-.117.342-.078.072-.204.107-.378.107h-2.319c-.176 0-.303-.035-.38-.105-.077-.07-.115-.185-.115-.344 0-.157.038-.269.113-.336.075-.068.203-.102.382-.102h.656V2.458h-.656c-.176 0-.303-.035-.38-.105-.077-.07-.115-.184-.115-.34 0-.16.038-.273.113-.34.075-.068.203-.102.382-.102h2.319c.184 0 .313.034.386.101.073.068.11.181.11.34 0 .157-.038.27-.114.341-.075.07-.203.105-.382.105h-.656zM21.583 4.5a1.026 1.026 0 0 1-.402-.47c-.078-.189-.117-.486-.117-.891v-.855c0-.127-.031-.223-.093-.29-.063-.066-.167-.11-.313-.131-.19-.027-.316-.073-.378-.138-.063-.065-.094-.163-.094-.296 0-.135.04-.24.12-.316.078-.075.191-.113.337-.113.192 0 .372.03.538.09.167.059.306.142.418.25a.992.992 0 0 1 .27.452c.051.18.077.496.077.95v.482c0 .47.178.741.535.814.086.014.152.027.199.04.11.03.19.08.242.149A.44.44 0 0 1 23 4.5a.459.459 0 0 1-.082.286.425.425 0 0 1-.246.147c-.041.009-.1.02-.175.033-.367.073-.55.347-.55.822v.47c0 .427-.02.723-.06.89a1.044 1.044 0 0 1-.198.423c-.102.127-.248.23-.44.31-.19.08-.39.119-.598.119a.48.48 0 0 1-.342-.115.42.42 0 0 1-.123-.322c0-.127.03-.223.092-.288.061-.065.188-.114.38-.146.159-.024.266-.069.322-.134.056-.064.084-.168.084-.312V5.87c0-.43.038-.732.113-.907.076-.176.211-.33.406-.462z"/>
  </defs>
  <use fill="#5856D6" xlink:href="#prefix__ic_api_primary-a"/>
</svg>
