<svg xmlns="http://www.w3.org/2000/svg" xmlns:xlink="http://www.w3.org/1999/xlink" width="24" height="24">
  <defs>
    <path id="prefix__ic_cancel_red-a" d="M12 1C5.921 1 1 5.921 1 12s4.921 11 11 11 11-4.921 11-11S18.079 1 12 1zm0 20.842A9.834 9.834 0 0 1 2.158 12c0-5.442 4.4-9.842 9.842-9.842s9.842 4.4 9.842 9.842-4.4 9.842-9.842 9.842zM12.81 12l3.648-3.647a.56.56 0 0 0 0-.81.56.56 0 0 0-.81 0L12 11.188 8.353 7.542a.56.56 0 0 0-.81 0 .56.56 0 0 0 0 .81L11.188 12l-3.647 3.647a.56.56 0 0 0 0 .81.56.56 0 0 0 .81 0L12 12.812l3.647 3.647a.56.56 0 0 0 .81 0 .56.56 0 0 0 0-.81L12.812 12z"/>
  </defs>
  <use fill="#FF3B30" xlink:href="#prefix__ic_cancel_red-a"/>
</svg>
