<svg xmlns="http://www.w3.org/2000/svg" xmlns:xlink="http://www.w3.org/1999/xlink" width="24" height="24">
  <defs>
    <path id="prefix__ic_doc_po_primary-a" d="M16.104 4.803c0 .383.312.695.695.695h1.57l-2.265-2.265v1.57zm.695 2.003a2.006 2.006 0 0 1-2.003-2.003V2.308H6.003a.696.696 0 0 0-.695.695v17.994c0 .383.312.695.695.695H18.6a.696.696 0 0 0 .695-.695V6.807H16.8zM20.41 5.69a.65.65 0 0 1 .192.462v14.845A2.006 2.006 0 0 1 18.6 23H6.003A2.006 2.006 0 0 1 4 20.997V3.003C4 1.9 4.899 1 6.003 1h9.447a.65.65 0 0 1 .462.192L20.41 5.69zm-3.16 7.726a.655.655 0 0 1 0 1.308H7.352a.655.655 0 0 1 0-1.308h9.896zm0 2.878a.655.655 0 0 1 0 1.308H7.352a.655.655 0 0 1 0-1.308h9.896zm-4.5 2.7a.655.655 0 0 1 0 1.307H7.354a.655.655 0 0 1 0-1.308h5.398zm-1.553-7.83c0-.36.294-.653.654-.653h5.398a.655.655 0 0 1 0 1.307h-5.398a.655.655 0 0 1-.654-.653zm-2.672-5.61a.247.247 0 0 0-.097-.194.382.382 0 0 0-.262-.093h-.571v.575h.586a.378.378 0 0 0 .251-.094.249.249 0 0 0 .093-.194zm.527-.841c.248.23.374.514.374.841 0 .322-.121.601-.36.831a1.258 1.258 0 0 1-.855.356h-.008a.372.372 0 0 1-.037.002h-.013l-.015-.002h-.543v1.017a.439.439 0 0 1-.13.317.443.443 0 0 1-.32.132.434.434 0 0 1-.316-.132.434.434 0 0 1-.133-.317v-2.94c0-.123.046-.232.133-.317a.434.434 0 0 1 .316-.133h1.021c.344 0 .643.116.886.345zm2.772 2.596a.979.979 0 0 0 .721-.3.976.976 0 0 0 .299-.72.98.98 0 0 0-.3-.722.979.979 0 0 0-.72-.298.972.972 0 0 0-.72.299.976.976 0 0 0-.3.721c0 .283.098.518.3.719a.968.968 0 0 0 .72.3zm1.357-2.377c.372.374.561.83.561 1.357s-.189.982-.561 1.355c-.374.374-.83.563-1.357.563a1.85 1.85 0 0 1-1.355-.564 1.85 1.85 0 0 1-.563-1.354c0-.527.19-.983.563-1.357a1.854 1.854 0 0 1 1.355-.561c.526 0 .983.188 1.357.56z"/>
  </defs>
  <use fill="#5856D6" fill-rule="evenodd" xlink:href="#prefix__ic_doc_po_primary-a"/>
</svg>
