<svg xmlns="http://www.w3.org/2000/svg" xmlns:xlink="http://www.w3.org/1999/xlink" width="24" height="24">
  <defs>
    <path id="prefix__ic_doc_invoice_black-a" d="M22.793 15.181l-.922 1.46a.044.044 0 0 0 0 .046l.735 1.165a1.087 1.087 0 0 1-.918 1.667H2.313a1.087 1.087 0 0 1-.92-1.667l.736-1.164a.044.044 0 0 0 0-.047l-.922-1.46a1.354 1.354 0 0 1 0-1.438l.922-1.46a.044.044 0 0 0 0-.046l-.922-1.46a1.354 1.354 0 0 1 0-1.44l.922-1.46a.044.044 0 0 0 0-.045l-.735-1.165A1.087 1.087 0 0 1 2.312 5h19.375a1.087 1.087 0 0 1 .92 1.667l-.736 1.164a.044.044 0 0 0 0 .047l.922 1.46a1.354 1.354 0 0 1 0 1.438l-.922 1.46a.044.044 0 0 0 0 .046l.922 1.46a1.354 1.354 0 0 1 0 1.44zm-1.103-.696a.044.044 0 0 0 0-.047l-.922-1.46a1.354 1.354 0 0 1 0-1.438l.922-1.46a.044.044 0 0 0 0-.046l-.922-1.46a1.354 1.354 0 0 1 0-1.44l.525-.83h-4.671v.044a.652.652 0 0 1-1.304 0v-.044H2.707l.525.831a1.354 1.354 0 0 1 0 1.44l-.922 1.46a.044.044 0 0 0 0 .046l.922 1.46a1.354 1.354 0 0 1 0 1.438l-.922 1.46a.044.044 0 0 0 0 .046l.922 1.46a1.354 1.354 0 0 1 0 1.44l-.525.83h12.61v-.044a.652.652 0 0 1 1.305 0v.044h4.671l-.525-.831a1.354 1.354 0 0 1 0-1.44l.922-1.46zm-5.72-6.12c.36 0 .652.292.652.652V9.4a.652.652 0 0 1-1.304 0v-.382c0-.36.292-.652.652-.652zm0 6.103c.36 0 .652.292.652.652v.382a.652.652 0 0 1-1.304 0v-.382c0-.36.292-.652.652-.652zm0-3.051c.36 0 .652.292.652.652v.381a.652.652 0 1 1-1.304 0v-.381c0-.36.292-.652.652-.652zm-6.176.1c.584.238.987.497 1.266.814.31.353.462.773.462 1.284 0 .923-.615 1.678-1.57 1.934v.788a.304.304 0 0 1-.303.304h-.626a.304.304 0 0 1-.304-.304v-.718c-.536-.057-1.054-.233-1.393-.475a.305.305 0 0 1-.109-.35l.239-.665a.302.302 0 0 1 .454-.15 2.33 2.33 0 0 0 1.262.376c.525 0 .878-.27.878-.67 0-.271-.113-.568-.933-.9-.597-.235-1.01-.472-1.295-.747a1.656 1.656 0 0 1-.533-1.254c0-.895.574-1.6 1.5-1.844v-.758c0-.168.136-.304.303-.304h.616c.168 0 .304.136.304.304v.68c.427.048.8.17 1.141.369.128.075.183.23.13.37l-.248.655a.303.303 0 0 1-.434.156c-.156-.089-.521-.298-1.101-.298-.553 0-.75.285-.75.551 0 .29.151.482 1.044.852z"/>
  </defs>
  <use xlink:href="#prefix__ic_doc_invoice_black-a"/>
</svg>
