<svg xmlns="http://www.w3.org/2000/svg" xmlns:xlink="http://www.w3.org/1999/xlink" width="24" height="24">
  <defs>
    <path id="prefix__ic_doc_nda_black-a" d="M22.36 4.578h-5.848v-.644A1.936 1.936 0 0 0 14.578 2H9.422a1.936 1.936 0 0 0-1.934 1.934v.644H1.645A.646.646 0 0 0 1 5.223v14.18c0 1.066.867 1.933 1.934 1.933h18.132A1.936 1.936 0 0 0 23 19.402V5.234c-.025-.424-.285-.653-.64-.656zM8.776 3.934c0-.356.29-.645.645-.645h5.156c.355 0 .645.29.645.645v.644H8.777v-.644zM21.46 5.867l-2.001 6.005a.643.643 0 0 1-.612.44h-3.625v-.644a.644.644 0 0 0-.645-.645H9.422a.644.644 0 0 0-.645.645v.645H5.152a.643.643 0 0 1-.612-.441l-2-6.005h18.92zm-7.527 6.446v1.289h-3.868v-1.29h3.868zm7.777 7.09c0 .355-.29.644-.645.644H2.934a.645.645 0 0 1-.645-.645V9.194l1.028 3.085a1.932 1.932 0 0 0 1.835 1.323h3.625v.644c0 .356.289.645.645.645h5.156a.644.644 0 0 0 .645-.645v-.644h3.625a1.93 1.93 0 0 0 1.835-1.323l1.028-3.085v10.208z"/>
  </defs>
  <use xlink:href="#prefix__ic_doc_nda_black-a"/>
</svg>
