<svg xmlns="http://www.w3.org/2000/svg" xmlns:xlink="http://www.w3.org/1999/xlink" width="24" height="24">
  <defs>
    <path id="prefix__ic_doc_contract_white-a" d="M4.648 7.948a.641.641 0 1 1 0-1.283h8.945a.641.641 0 1 1 0 1.283H4.648zm0 2.203a.641.641 0 1 1 0-1.283h8.945a.641.641 0 1 1 0 1.283H4.648zm4.732 7.53a.641.641 0 1 1 0 1.282H4.648a.641.641 0 1 1 0-1.283H9.38zM22.689 3.222a.641.641 0 0 1 .22.88L16.64 14.546v7.426a.641.641 0 0 1-.64.641H1.64a.641.641 0 0 1-.64-.64V3.905c0-.354.287-.642.641-.642h14.36c.353 0 .64.288.64.642V7.78l3.283-5.47a.641.641 0 0 1 .88-.22l1.885 1.132zm-8.282 12.555L20.56 5.526l-.786-.471-6.151 10.252-.279 1.354 1.064-.883zM21.22 4.426l.26-.434-.786-.471-.26.434.786.471zM2.282 21.332H15.36v-4.685c-.016.017-.031.033-.049.048l-2.553 2.12a.64.64 0 0 1-1.038-.623l.295-1.432H4.648a.641.641 0 1 1 0-1.283h7.63l.11-.536a.642.642 0 0 1 .078-.2l.11-.184H4.648a.641.641 0 1 1 0-1.283h8.698l.628-1.046a.637.637 0 0 1-.381.126H4.648a.641.641 0 1 1 0-1.283h8.945a.641.641 0 0 1 .634.735l1.132-1.887V4.546H2.282v16.786z"/>
  </defs>
  <use fill="#FFF" xlink:href="#prefix__ic_doc_contract_white-a"/>
</svg>
