<svg xmlns="http://www.w3.org/2000/svg" xmlns:xlink="http://www.w3.org/1999/xlink" width="24" height="24">
  <defs>
    <path id="prefix__ic_doc_mou_white-a" d="M17.929 11.799V2.437c0-.111-.072-.182-.183-.182H5.436c-.11 0-.181.071-.181.182V20c0 .11.071.182.182.182h8.726v-1.585H7.48a.614.614 0 0 1 0-1.228h6.113a.285.285 0 0 1-.003-.007.754.754 0 0 1-.074-.119.945.945 0 0 0-.04-.071l-.034-.033-.01-.02a4.37 4.37 0 0 1-.164-.354l-.002-.005a5.601 5.601 0 0 1-.223-.784H7.481a.614.614 0 0 1 0-1.228h5.558c.023-.148.049-.3.092-.457l.002-.007c.11-.33.253-.635.427-.907H7.48a.614.614 0 0 1 0-1.228h7.37a.398.398 0 0 0 .097-.067l.014-.014.018-.01c.1-.05.213-.106.355-.164l.025-.01h.025a3.57 3.57 0 0 1 1.41-.265c.397 0 .777.06 1.135.179zm.398 5.548c.032-.026.066-.053.107-.08.931-.807 1.184-2.15.6-3.196l-.001-.002a2.558 2.558 0 0 0-.855-.932l-.003-.002a.8.8 0 0 0-.081-.047c-.04-.021-.082-.043-.12-.074a.3.3 0 0 1-.033-.015h-.011l-.03-.015a1.93 1.93 0 0 0-.137-.062 1.785 1.785 0 0 1-.125-.055h-.017l-.021-.007a2.497 2.497 0 0 0-1.66.025l-.023.009h-.02l-.09.039a.772.772 0 0 0-.18.093l-.008.006-.01.006a2.519 2.519 0 0 0-1.332 2.239c0 .404.103.811.305 1.21.05.097.096.17.169.266.023.025.036.05.044.066l.002.004.007.007.01.013c.048.07.095.119.143.167l.054.054c.074.074.15.15.217.194l.011.008.029.028c.038.027.07.053.102.078a1.7 1.7 0 0 0 .098.074l.01.007.013.013c.01.005.02.01.027.016.022.006.04.014.053.021h.036l.031.031.01.004a.277.277 0 0 1 .082.04 2.666 2.666 0 0 0 1.852.144l.018-.005h.009l.018-.006a.4.4 0 0 1 .065-.018l.03-.03h.037a.236.236 0 0 1 .065-.024 1.15 1.15 0 0 0 .091-.042c.038-.019.077-.038.118-.053.033-.022.064-.038.093-.053a.364.364 0 0 0 .081-.051l.01-.01.012-.008c.035-.025.065-.049.098-.075zm-2.868 1.468l-.022 2.377.962-.811c.131-.128.331-.141.411-.141.08 0 .277.013.412.14l.965.815.006-2.365a.271.271 0 0 0-.069.021l-.031.015-.027.027h-.037a.21.21 0 0 1-.098.027h-.025l-.027.027h-.077l-.024.027h-.052a.037.037 0 0 0-.014.004c-.028.008-.07.02-.117.023a.716.716 0 0 0-.019.006.288.288 0 0 1-.097.02.264.264 0 0 0-.044.009c-.035.008-.083.019-.143.019h-.022l-.027.027h-.511c-.082 0-.191 0-.286-.027h-.044a3.1 3.1 0 0 1-.943-.24zm4.69-5.354a3.833 3.833 0 0 1-.699 4.528l-.026 3.976c0 .488-.188.734-.346.854a.78.78 0 0 1-.455.156.93.93 0 0 1-.59-.218l-1.24-1.042-1.187.99c-.12.096-.37.295-.67.295-.339 0-.709-.234-.772-.757l-.001-.016v-.71H5.437A1.438 1.438 0 0 1 4 20.08V2.437C4 1.644 4.645 1 5.437 1h12.336c.793 0 1.437.644 1.437 1.437v9.88c.374.289.69.673.94 1.144zm-4.165-3.927a.624.624 0 0 1 .202.464.614.614 0 0 1-.614.614H7.481a.614.614 0 0 1 0-1.228h8.058a.589.589 0 0 1 .445.15zm-8.022-2.83h7.021V5.2H7.962v1.504zm7.345-2.759c.515 0 .933.419.933.933v2.15a.934.934 0 0 1-.933.933H7.64a.923.923 0 0 1-.933-.933v-2.15c0-.514.419-.933.933-.933h7.667z"/>
  </defs>
  <use fill="#FFF" fill-rule="evenodd" xlink:href="#prefix__ic_doc_mou_white-a"/>
</svg>
