<svg xmlns="http://www.w3.org/2000/svg" xmlns:xlink="http://www.w3.org/1999/xlink" width="24" height="24">
  <defs>
    <path id="prefix__ic_doc_quotation_black-a" d="M10.628 14.814a.467.467 0 1 1 0-.935h6.624a.467.467 0 0 1 0 .935h-6.624zm0 1.869a.467.467 0 1 1 0-.935h6.624a.467.467 0 0 1 0 .935h-6.624zm0 1.869a.467.467 0 1 1 0-.934h6.624a.467.467 0 0 1 0 .934h-6.624zm-2.43 3.037h11.484V7.2H8.199v14.39zm-1.4-15.091a.7.7 0 0 1 .7-.701h9.786V4.8H5.8v14.39h.997V6.499zm-2.4-2.399a.7.7 0 0 1 .701-.7h9.786v-.997H3.402v14.39h.996V4.1zm15.985 1.698a.7.7 0 0 1 .7.7V22.29a.7.7 0 0 1-.7.701H7.498a.7.7 0 0 1-.701-.7v-1.698H5.099a.7.7 0 0 1-.7-.701v-1.698H2.7a.7.7 0 0 1-.701-.7V1.7A.7.7 0 0 1 2.7 1h12.886a.7.7 0 0 1 .7.7v1.698h1.698a.7.7 0 0 1 .701.701v1.698h1.698zm-4.561 4.507a.842.842 0 0 1-.404.31l.291.637c.08.18.1.325.057.434-.041.11-.135.164-.28.164a.61.61 0 0 1-.597-.38l-.589-1.263a.954.954 0 0 1-.094-.402.83.83 0 0 1 .253-.618.869.869 0 0 1 .634-.247.86.86 0 0 1 .63.248.83.83 0 0 1 .251.618c0 .188-.05.355-.152.499zm-2.3 0a.842.842 0 0 1-.404.31l.291.637c.08.18.1.325.058.434-.042.11-.136.164-.28.164a.61.61 0 0 1-.597-.38L12 10.205a.953.953 0 0 1-.094-.402.83.83 0 0 1 .253-.618.87.87 0 0 1 .634-.247.86.86 0 0 1 .63.248.83.83 0 0 1 .251.618c0 .188-.05.355-.152.499z"/>
  </defs>
  <use fill-rule="evenodd" xlink:href="#prefix__ic_doc_quotation_black-a"/>
</svg>
