<svg xmlns="http://www.w3.org/2000/svg" width="24" height="24">
  <g fill="none" transform="translate(2 1)">
    <ellipse cx="9.981" cy="8.735" fill="#FFD15C" rx="8.62" ry="8.735"/>
    <path fill="#40596B" d="M2.998 13.845l-2.966 5.21 3.462-.186L5.066 22l2.744-4.82a8.61 8.61 0 0 1-4.812-3.335zm13.982-.025a8.614 8.614 0 0 1-4.798 3.351L14.934 22l1.572-3.131 3.462.186-2.987-5.236z"/>
    <ellipse cx="9.981" cy="8.735" fill="#F8B64C" rx="6.248" ry="6.331"/>
    <path fill="#FFF" d="M14.263 8.05a.331.331 0 0 0-.18-.562l-2.465-.364a.322.322 0 0 1-.244-.182L10.27 4.677a.324.324 0 0 0-.585 0L8.588 6.942a.34.34 0 0 1-.244.182l-2.466.364c-.265.039-.372.372-.18.563l1.783 1.762a.336.336 0 0 1 .094.29l-.419 2.486a.326.326 0 0 0 .474.347l2.205-1.174a.315.315 0 0 1 .304 0l2.205 1.174a.328.328 0 0 0 .474-.347l-.423-2.485a.328.328 0 0 1 .094-.29l1.774-1.763z"/>
  </g>
</svg>
