<svg xmlns="http://www.w3.org/2000/svg" xmlns:xlink="http://www.w3.org/1999/xlink" width="24" height="24">
  <defs>
    <path id="prefix__ic_proof_of_receipt_black-a" d="M14.914 22.547c-.323 0-.642-.1-.915-.296l-2.56-1.837a.242.242 0 0 0-.256.008L8.636 22.25a1.581 1.581 0 0 1-1.532.172 1.567 1.567 0 0 1-.944-1.197l-.517-3.11a.206.206 0 0 0-.169-.169l-3.111-.517a1.575 1.575 0 0 1-1.027-2.47l1.84-2.564a.24.24 0 0 0-.009-.256L1.341 9.594a1.567 1.567 0 0 1-.175-1.523c.21-.508.659-.864 1.2-.952l3.11-.517a.206.206 0 0 0 .168-.17l.517-3.111c.089-.538.441-.984.944-1.195a1.57 1.57 0 0 1 1.526.169l2.564 1.84a.21.21 0 0 0 .246-.001l2.557-1.837a1.57 1.57 0 0 1 1.523-.173c.508.21.863.658.953 1.199l.173 1.044a.685.685 0 1 1-1.351.225l-.174-1.046a.198.198 0 0 0-.125-.157.2.2 0 0 0-.2.021L12.24 5.248a1.584 1.584 0 0 1-1.841 0L7.837 3.41a.206.206 0 0 0-.202-.021.197.197 0 0 0-.122.156l-.518 3.113A1.573 1.573 0 0 1 5.7 7.952l-3.113.518a.198.198 0 0 0-.156.125.2.2 0 0 0 .02.2L4.255 11.3c.417.61.417 1.34.044 1.883l-1.845 2.572a.208.208 0 0 0-.022.202c.02.048.063.107.156.123l3.114.518c.664.11 1.183.63 1.294 1.293l.517 3.113a.198.198 0 0 0 .122.157c.04.017.12.036.207-.025l2.554-1.833a1.623 1.623 0 0 1 1.83-.008l2.571 1.845a.2.2 0 0 0 .2.021.2.2 0 0 0 .125-.155l.518-3.114c.11-.664.63-1.183 1.294-1.294l3.113-.516a.198.198 0 0 0 .157-.123.209.209 0 0 0-.025-.207l-1.833-2.554a.685.685 0 0 1 1.113-.8l1.837 2.56a1.58 1.58 0 0 1 .172 1.532 1.567 1.567 0 0 1-1.198.944l-3.11.517a.206.206 0 0 0-.169.169l-.516 3.111a1.567 1.567 0 0 1-1.56 1.316zm-2.684-7.761a.68.68 0 0 1-.483-.201l-4.11-4.109a.685.685 0 0 1 .97-.969l3.624 3.625 9.56-9.559a.685.685 0 1 1 .968.969L12.715 14.586a.685.685 0 0 1-.485.2z"/>
  </defs>
  <use xlink:href="#prefix__ic_proof_of_receipt_black-a"/>
</svg>
