<svg xmlns="http://www.w3.org/2000/svg" width="24" height="24">
  <path fill="#FFF" d="M21.022 5.665c.23.23.426.54.59.933.163.393.245.753.245 1.08v14.143c0 .328-.114.606-.344.835-.229.23-.507.344-.834.344h-16.5c-.328 0-.606-.115-.835-.344A1.137 1.137 0 0 1 3 21.821V2.18c0-.328.115-.606.344-.835.229-.23.507-.344.835-.344h11c.327 0 .687.082 1.08.246.393.163.704.36.933.589l3.83 3.83zm-5.45-2.995v4.616h4.616c-.082-.238-.172-.405-.27-.504L16.074 2.94c-.098-.098-.266-.189-.504-.27zm4.714 18.759V8.857h-5.107c-.328 0-.606-.114-.835-.344A1.137 1.137 0 0 1 14 7.68V2.57H4.571v18.86h15.715zm-6.31-7.28c.27.212.613.441 1.03.687.484-.057.962-.086 1.437-.086 1.203 0 1.928.2 2.173.602.131.18.14.392.025.638 0 .008-.004.016-.013.025l-.024.024v.012c-.05.311-.34.467-.872.467-.393 0-.863-.082-1.412-.246a8.95 8.95 0 0 1-1.596-.65c-1.808.196-3.413.536-4.812 1.019-1.252 2.144-2.243 3.216-2.971 3.216a.714.714 0 0 1-.344-.086l-.295-.147a1.313 1.313 0 0 0-.073-.061c-.082-.082-.107-.23-.074-.442.074-.328.303-.702.688-1.124.384-.421.924-.816 1.62-1.184.115-.074.209-.05.283.073.016.017.024.033.024.05.426-.696.864-1.503 1.314-2.42A18.736 18.736 0 0 0 11.36 11.3a9.924 9.924 0 0 1-.374-1.958c-.053-.634-.027-1.156.08-1.565.09-.328.262-.491.515-.491h.271c.188 0 .331.061.43.184.147.172.183.45.11.835a.267.267 0 0 1-.05.098.32.32 0 0 1 .013.098v.368c-.016 1.007-.074 1.793-.172 2.358.45 1.342 1.048 2.316 1.792 2.921zm-7.072 5.045c.426-.196.986-.843 1.682-1.94a6.999 6.999 0 0 0-1.074 1.032c-.299.36-.502.663-.608.908zM11.79 7.9c-.123.343-.13.883-.024 1.62.008-.057.036-.237.086-.54 0-.025.028-.2.085-.528a.277.277 0 0 1 .05-.098c-.009-.008-.013-.017-.013-.025a.094.094 0 0 1-.012-.037.707.707 0 0 0-.16-.442c0 .009-.004.017-.012.025V7.9zm-1.522 8.115a18.007 18.007 0 0 1 3.486-.995 1.855 1.855 0 0 1-.16-.117 2.194 2.194 0 0 1-.196-.165c-.622-.549-1.141-1.269-1.559-2.161-.22.704-.56 1.51-1.019 2.419-.245.458-.43.798-.552 1.019zm7.93-.197c-.196-.196-.769-.295-1.718-.295.622.23 1.13.344 1.522.344.115 0 .188-.004.221-.012 0-.008-.008-.02-.024-.037z"/>
</svg>
