<svg xmlns="http://www.w3.org/2000/svg" xmlns:xlink="http://www.w3.org/1999/xlink" width="24" height="24">
  <defs>
    <path id="prefix__ic_proof_of_identity_black-a" d="M12.224 12.72a2.467 2.467 0 1 1 0-4.935 2.467 2.467 0 0 1 0 4.935zm0-3.976a1.513 1.513 0 1 0 .001 3.027 1.513 1.513 0 0 0 0-3.027zm-.102 4.798a3.674 3.674 0 0 1 2.692 1.153c.718.75 1.111 1.771 1.111 2.88 0 .27-.214.49-.479.49h-6.65a.486.486 0 0 1-.478-.49c0-1.109.393-2.13 1.111-2.88a3.674 3.674 0 0 1 2.693-1.153zm-2.813 3.542h5.625a3.046 3.046 0 0 0-.805-1.702 2.79 2.79 0 0 0-2.007-.859 2.79 2.79 0 0 0-2.008.859 3.03 3.03 0 0 0-.805 1.702zM18.03 1a2.422 2.422 0 0 1 2.42 2.423v17.154A2.422 2.422 0 0 1 18.029 23H6.42A2.422 2.422 0 0 1 4 20.577V3.423A2.422 2.422 0 0 1 6.419 1h11.61zm1.452 19.577V3.423a1.457 1.457 0 0 0-1.451-1.454H6.419c-.8.002-1.45.652-1.451 1.454v17.154c.002.802.65 1.452 1.45 1.454H18.03a1.457 1.457 0 0 0 1.451-1.454zM10.23 4.29c-.261 0-.473-.23-.473-.514 0-.284.212-.514.473-.514h3.783c.261 0 .473.23.473.514 0 .284-.212.514-.473.514H10.23z"/>
  </defs>
  <use xlink:href="#prefix__ic_proof_of_identity_black-a"/>
</svg>
