<svg xmlns="http://www.w3.org/2000/svg" xmlns:xlink="http://www.w3.org/1999/xlink" width="24" height="24">
  <defs>
    <path id="prefix__ic_proof_of_integrity_black-a" d="M21.014 11.507h-2.478a.493.493 0 0 0-.493.493v1.783a1.29 1.29 0 0 1-2.58 0V12a.493.493 0 0 0-.492-.493h-2.44V9.028h1.288a2.278 2.278 0 0 0 2.116-3.116 2.278 2.278 0 0 0-2.152-1.535H12.53V2.986h7.194c.711 0 1.29.579 1.29 1.29v7.231zm0 8.217c0 .711-.579 1.29-1.29 1.29h-7.231v-3.072a.493.493 0 0 0-.493-.494h-1.782a1.29 1.29 0 0 1 0-2.578H12a.493.493 0 0 0 .493-.493v-1.884h1.985v1.29a2.278 2.278 0 0 0 2.276 2.275 2.278 2.278 0 0 0 2.275-2.275v-1.29h1.985v7.231zm-9.507 1.29H4.276c-.711 0-1.29-.579-1.29-1.29v-7.231h8.521v1.39h-1.289a2.277 2.277 0 0 0-2.276 2.276 2.277 2.277 0 0 0 2.276 2.275h1.29v2.58zM2.986 4.26c0-.715.552-1.274 1.256-1.274h7.265V4.87a.49.49 0 0 0 .048.212c.065.232.26.382.482.382h1.782c.52 0 .986.308 1.19.785a1.291 1.291 0 0 1-1.225 1.693H12a.493.493 0 0 0-.493.492v3.073H2.986V4.26zM19.724 2H4.242C2.985 2 2 2.993 2 4.26v15.464A2.279 2.279 0 0 0 4.276 22h15.448A2.279 2.279 0 0 0 22 19.724V4.276A2.279 2.279 0 0 0 19.724 2z"/>
  </defs>
  <use fill-rule="evenodd" xlink:href="#prefix__ic_proof_of_integrity_black-a"/>
</svg>
