<svg xmlns="http://www.w3.org/2000/svg" xmlns:xlink="http://www.w3.org/1999/xlink" width="24" height="24">
  <defs>
    <path id="prefix__ic_progress_white-a" d="M12 5.583c-.55 0-.917-.366-.917-.916v-2.75c0-.55.367-.917.917-.917s.917.367.917.917v2.75c0 .55-.367.916-.917.916zM12 23c-.55 0-.917-.367-.917-.917v-2.75c0-.55.367-.916.917-.916s.917.366.917.916v2.75c0 .55-.367.917-.917.917zM4.667 12.917h-2.75C1.367 12.917 1 12.55 1 12s.367-.917.917-.917h2.75c.55 0 .916.367.916.917s-.366.917-.916.917zm17.416 0h-2.75c-.55 0-.916-.367-.916-.917s.366-.917.916-.917h2.75c.55 0 .917.367.917.917s-.367.917-.917.917zM18.325 9.25c-.275 0-.642-.183-.825-.458-.275-.459-.092-1.009.367-1.284l2.383-1.375c.458-.275 1.008-.091 1.283.367.275.458.092 1.008-.366 1.283l-2.384 1.375c-.091.092-.275.092-.458.092zM3.292 17.958c-.275 0-.642-.183-.825-.458-.275-.458-.092-1.008.366-1.283l2.384-1.375c.458-.275 1.008-.092 1.283.366.275.459.092 1.009-.367 1.284L3.75 17.867c-.183.091-.367.091-.458.091zM15.667 6.592c-.184 0-.275 0-.459-.092-.458-.275-.55-.825-.366-1.283l1.375-2.384c.275-.458.825-.55 1.283-.366.458.275.55.825.367 1.283l-1.375 2.383c-.184.275-.55.459-.825.459zM6.958 21.625c-.183 0-.275 0-.458-.092-.458-.275-.55-.825-.367-1.283l1.375-2.383c.275-.367.825-.55 1.284-.275.458.275.55.825.366 1.283l-1.375 2.292c-.183.275-.55.458-.825.458zM5.675 9.25c-.183 0-.367 0-.458-.092L2.833 7.783c-.458-.275-.641-.825-.366-1.283.275-.458.825-.55 1.283-.367l2.383 1.375c.459.275.55.825.275 1.284-.091.275-.458.458-.733.458zm15.033 8.708c-.183 0-.275 0-.458-.091l-2.383-1.375c-.459-.275-.55-.825-.367-1.284.275-.458.825-.55 1.283-.366l2.384 1.375c.458.275.55.825.366 1.283-.183.275-.458.458-.825.458zM8.333 6.592c-.275 0-.641-.184-.825-.459L6.133 3.75c-.183-.458-.091-1.008.367-1.283.458-.275 1.008-.092 1.283.366l1.375 2.384c.184.458.092 1.008-.366 1.191-.184.092-.275.184-.459.184zm8.709 15.033c-.275 0-.642-.183-.825-.458l-1.375-2.384c-.275-.458-.092-1.008.366-1.283.459-.275 1.009-.092 1.284.367l1.375 2.383c.275.458.091 1.008-.367 1.283-.183.092-.275.092-.458.092z"/>
  </defs>
  <use fill="#FFF" xlink:href="#prefix__ic_progress_white-a"/>
</svg>
