<svg xmlns="http://www.w3.org/2000/svg" xmlns:xlink="http://www.w3.org/1999/xlink" width="24" height="24">
  <defs>
    <path id="prefix__ic_proof_of_existence_white-a" d="M22.165 13.167c.541.536.84 1.253.845 2.022 0 .765-.294 1.482-.836 2.023l-4.952 4.952A2.856 2.856 0 0 1 15.2 23a2.837 2.837 0 0 1-2.022-.836L4.63 13.618a2.388 2.388 0 0 1-.698-1.852l.18-2.75a5.302 5.302 0 0 1-1.61-1.106c-.844-.845-1.371-1.913-1.48-3.01-.114-1.144.227-2.175.968-2.915C3.481.494 6.14.722 7.925 2.493a.57.57 0 1 1-.807.807c-1.334-1.33-3.267-1.562-4.316-.513-.494.494-.722 1.201-.641 1.994.085.836.494 1.658 1.154 2.317.27.271.57.499.883.68l.147-2.194A1.35 1.35 0 0 1 5.599 4.33l6.177-.408c.052-.005.104-.005.157-.005.636 0 1.239.252 1.69.703l8.542 8.547zm-.803 3.233a1.71 1.71 0 0 0 .504-1.215c0-.461-.18-.893-.504-1.216l-8.541-8.542a1.262 1.262 0 0 0-.888-.365c-.029 0-.057.004-.086.004l-6.177.409a.21.21 0 0 0-.195.194l-.17 2.545c.104.02.208.038.317.048.793.08 1.5-.147 1.995-.641a.57.57 0 1 1 .807.807c-.646.646-1.515.988-2.488.988-.138 0-.28-.01-.423-.024-.095-.01-.19-.024-.285-.038l-.166 2.488c-.024.36.11.712.366.968l8.546 8.547a1.71 1.71 0 0 0 1.216.503c.46 0 .893-.18 1.215-.503l4.957-4.957zm-8.501-.155a.521.521 0 0 1-.416-.208l-1.339-1.768a.521.521 0 1 1 .833-.63l.88 1.163 2.215-3.556a.523.523 0 0 1 .887.552l-2.617 4.2a.52.52 0 0 1-.42.246h-.023z"/>
  </defs>
  <use fill="#FFF" xlink:href="#prefix__ic_proof_of_existence_white-a"/>
</svg>
