<svg xmlns="http://www.w3.org/2000/svg" width="104" height="20">
  <path stroke="#000" stroke-width=".5" d="M2.627 4.754h-.178c-.456 0-.78-.075-.97-.226-.192-.15-.288-.403-.288-.758 0-.32.082-.563.246-.732.165-.169.402-.253.711-.253h4.143c.538 0 .9.073 1.087.219.187.146.28.4.28.766 0 .337-.1.585-.3.745-.201.16-.52.239-.958.239H4.896l4.649 11.922L14.07 4.754h-1.818c-.428 0-.745-.08-.95-.24-.205-.159-.308-.407-.308-.744 0-.365.096-.62.287-.766.192-.146.552-.219 1.08-.219h4.293c.31 0 .545.084.704.253.16.169.24.413.24.732 0 .355-.096.608-.287.758-.192.15-.525.226-.998.226h-.165l-4.921 12.879c-.283.683-.506 1.11-.67 1.278a.84.84 0 0 1-.63.253h-.779c-.601 0-1.089-.483-1.462-1.45l-.028-.081-5.031-12.88zm19.663 8.531c.073 1.313.518 2.327 1.333 3.042.816.716 1.93 1.073 3.343 1.073 1.067 0 2.229-.284 3.487-.854 1.257-.57 2.018-.855 2.283-.855.273 0 .501.087.683.26a.85.85 0 0 1 .274.643c0 .264-.096.506-.287.724-.192.22-.497.433-.916.643-.912.447-1.853.788-2.824 1.025-.97.237-1.934.356-2.891.356-2.078 0-3.742-.6-4.99-1.798-1.25-1.199-1.873-2.787-1.873-4.765 0-2.014.66-3.646 1.982-4.894 1.322-1.249 3.044-1.873 5.168-1.873 1.923 0 3.518.583 4.785 1.75 1.267 1.166 1.9 2.58 1.9 4.238 0 .51-.107.852-.32 1.025-.215.174-.796.26-1.744.26H22.29zm.069-1.79h8.9c-.137-1.086-.59-1.958-1.36-2.619-.77-.66-1.716-.991-2.837-.991-1.212 0-2.233.319-3.063.957-.829.638-1.376 1.522-1.64 2.652zm20.73 5.577h4.539c.355 0 .617.075.786.226.169.15.253.39.253.718 0 .373-.08.63-.24.772-.159.141-.453.212-.881.212h-8.942c-.355 0-.624-.082-.806-.246-.183-.164-.274-.41-.274-.738 0-.32.094-.556.28-.711.187-.155.477-.233.869-.233h2.379V8.31h-.93c-.884 0-1.436-.071-1.654-.212-.22-.142-.328-.4-.328-.773 0-.319.088-.558.266-.718.178-.16.449-.239.814-.239h3.117c.246 0 .433.048.56.144a.49.49 0 0 1 .192.417v2.324c.866-1.085 1.768-1.891 2.707-2.42a6.085 6.085 0 0 1 3.035-.793c.811 0 1.467.164 1.969.492.501.328.752.752.752 1.272 0 .337-.126.635-.376.895-.251.26-.527.39-.828.39-.21 0-.562-.14-1.06-.417-.496-.278-.94-.417-1.332-.417-.711 0-1.46.253-2.25.759-.788.506-1.66 1.305-2.617 2.4v5.66zM66.06 19c-.192 0-.326-.048-.403-.144-.078-.095-.117-.28-.117-.553v-1.121a5.573 5.573 0 0 1-2.05 1.592 6.289 6.289 0 0 1-2.667.568c-1.722 0-3.165-.613-4.327-1.84-1.162-1.225-1.743-2.75-1.743-4.572 0-1.887.62-3.457 1.86-4.71 1.24-1.254 2.784-1.88 4.634-1.88.94 0 1.782.166 2.53.499.747.333 1.39.822 1.927 1.47V3.072h-.724c-.793 0-1.306-.07-1.538-.212-.233-.14-.349-.398-.349-.772 0-.328.093-.574.28-.738.187-.164.458-.246.814-.246h2.803c.273 0 .471.045.594.136.123.091.185.233.185.424v15.408h.615c.447 0 .77.075.97.226.201.15.302.39.302.718 0 .31-.087.551-.26.724-.173.173-.406.26-.698.26H66.06zm-8.955-6.139c0 1.258.405 2.288 1.217 3.09.81.802 1.84 1.203 3.09 1.203 1.257 0 2.292-.417 3.103-1.25.811-.835 1.217-1.894 1.217-3.18 0-1.266-.404-2.31-1.21-3.13-.807-.82-1.844-1.23-3.11-1.23-1.286 0-2.325.414-3.118 1.243-.793.83-1.19 1.914-1.19 3.254zm22.357 4.567c1.403 0 2.554-.445 3.452-1.333.898-.889 1.346-2.021 1.346-3.398 0-1.376-.45-2.513-1.353-3.41-.902-.899-2.05-1.348-3.445-1.348s-2.541.45-3.439 1.347c-.898.898-1.347 2.035-1.347 3.411 0 1.386.447 2.52 1.34 3.405.894.884 2.042 1.326 3.446 1.326zm7.177-4.73c0 1.95-.665 3.545-1.996 4.784-1.33 1.24-3.058 1.86-5.181 1.86-2.115 0-3.838-.62-5.168-1.86-1.331-1.24-1.996-2.834-1.996-4.785 0-1.95.665-3.543 1.996-4.778 1.33-1.235 3.053-1.853 5.168-1.853 2.114 0 3.84.62 5.174 1.86 1.336 1.24 2.003 2.83 2.003 4.771zm14.455-5.51v-.055c0-.301.086-.522.26-.663.173-.142.442-.212.806-.212.374 0 .631.11.773.328.141.219.212.67.212 1.353v2.543c0 .338-.087.59-.26.76-.173.168-.433.252-.78.252a.99.99 0 0 1-.635-.212c-.178-.141-.394-.435-.65-.882-.437-.738-.968-1.296-1.592-1.674-.625-.379-1.342-.568-2.154-.568-1.422 0-2.577.42-3.465 1.258-.89.839-1.333 1.923-1.333 3.254 0 1.358.426 2.468 1.278 3.329.852.861 1.948 1.292 3.288 1.292a5.714 5.714 0 0 0 3.309-1.012c.173-.11.405-.278.697-.506.592-.483 1.057-.724 1.394-.724.283 0 .513.089.69.266a.934.934 0 0 1 .267.69c0 .72-.681 1.457-2.044 2.209a8.85 8.85 0 0 1-4.34 1.128c-1.978 0-3.626-.634-4.943-1.9-1.317-1.268-1.975-2.849-1.975-4.745s.656-3.48 1.968-4.75c1.313-1.272 2.953-1.908 4.922-1.908.693 0 1.388.093 2.085.28.697.187 1.438.477 2.222.869z" opacity=".6"/>
</svg>
