<svg xmlns="http://www.w3.org/2000/svg" width="48" height="48">
  <g fill="none">
    <path fill="#5856D6" d="M35.689 12.311l.007-.007a7.874 7.874 0 0 1 0 11.136c-2.15 2.147-14.074 5.023-15.428 5.345a.887.887 0 0 1-.82-.233.875.875 0 0 1-.238-.813c.32-1.353 3.193-13.28 5.342-15.428a7.89 7.89 0 0 1 11.137 0zm-5.568 8.193a2.625 2.625 0 1 0 0-5.25 2.625 2.625 0 0 0 0 5.25z"/>
    <path fill="#666" d="M32.746 34.502a5.25 5.25 0 1 1 0 10.498H4.75a1.75 1.75 0 1 1 0-3.5h27.996a1.75 1.75 0 0 0-.021-3.499H11.749a5.102 5.102 0 0 1-5.25-5.25 5.102 5.102 0 0 1 5.25-5.248h3.5a1.75 1.75 0 1 1 0 3.5h-3.5a1.601 1.601 0 0 0-1.75 1.749 1.606 1.606 0 0 0 1.77 1.75h20.977z"/>
    <path fill="#302A57" d="M44.737 10.262l.007-.007a.875.875 0 0 1-.175 1.369l-4.375 2.624a.875.875 0 0 1-1.069-.13l-5.25-5.25a.875.875 0 0 1-.13-1.07l2.624-4.375a.875.875 0 0 1 .644-.417.863.863 0 0 1 .725.257l6.999 7z"/>
  </g>
</svg>
