<svg xmlns="http://www.w3.org/2000/svg" xmlns:xlink="http://www.w3.org/1999/xlink" width="124" height="124">
  <defs>
    <circle id="prefix__line_qr_code-a" cx="13.078" cy="13.078" r="13.078"/>
  </defs>
  <g fill="none" fill-rule="evenodd">
    <path fill="#FFF" fill-rule="nonzero" stroke="#000" stroke-opacity=".12" stroke-width="1.267" d="M.633.633h122.733v122.733H.633z"/>
    <g transform="translate(49.422 49.422)">
      <mask id="prefix__line_qr_code-b" fill="#fff">
        <use xlink:href="#prefix__line_qr_code-a"/>
      </mask>
      <use fill="#35353C" xlink:href="#prefix__line_qr_code-a"/>
      <path fill="#FFF" fill-opacity=".2" d="M9.475 25.654a12.975 12.975 0 0 1-.117-.034.386.386 0 0 1-.105-.194 1.33 1.33 0 0 1-.033-.561c-.178.207-.342.391-.491.55a12.98 12.98 0 0 1-.119-.042l.037-.04.623-.699c.07-.246.195-.508.377-.785.392-.6.76-.949 1.103-1.047.169-.049.274.003.318.153.122.429.016.923-.32 1.483a.354.354 0 0 0 .114-.013c.146-.042.325-.178.537-.409.024-.102.058-.21.1-.323.15-.406.376-.787.677-1.142.301-.355.605-.576.91-.664.12-.035.194-.004.222.092.038.133-.016.338-.16.615-.146.277-.263.429-.353.455-.09.026-.145.006-.163-.06a.321.321 0 0 1 .003-.159c.015-.063.037-.098.067-.107.03-.009.063.005.099.04.26-.363.372-.607.336-.734-.005-.018-.023-.023-.053-.014-.192.055-.417.267-.675.636a5.322 5.322 0 0 0-.628 1.196c-.16.428-.211.745-.153.95.016.055.05.074.105.058.221-.064.6-.395 1.137-.995l.439-.509.043.115-.42.475c-.572.635-.992.992-1.262 1.07-.12.034-.216-.075-.288-.329a1.142 1.142 0 0 1-.021-.468c-.216.225-.4.359-.551.402-.078.023-.14.024-.185.004-.18.26-.381.489-.606.684-.224.195-.395.31-.512.343a.208.208 0 0 1-.032.007zm-1.42-.497a13 13 0 0 1-.24-.103l.001-.013-.011-.007-.01.012-.1-.046c.39-.55.65-1.046.782-1.49-.012-.042-.055-.053-.127-.032-.169.049-.42.259-.75.63a6.837 6.837 0 0 0-.487.611l-.3-.159c.043-.051.088-.1.135-.15.268-.276.547-.515.837-.715.29-.201.543-.333.761-.396.834-1.686 1.466-3.068 1.897-4.148.087-.221.217-.36.391-.417.055-.015.089.001.103.05.014.048-.25.644-.794 1.789a199.316 199.316 0 0 0-1.614 3.488c-.197.436-.355.802-.473 1.096zm-1.863-.958l-.189-.12a.653.653 0 0 1 .221-.143c.079-.022.123-.015.134.02.01.034-.046.115-.166.243zM3.639 22.13l-.15-.159c.284-.407.56-.777.824-1.11.39-.49.797-.926 1.224-1.306.428-.38.81-.618 1.15-.715.114-.033.178-.025.192.023.018.06-.11.245-.385.555-.274.31-.423.47-.447.476-.024.007-.039.001-.044-.017-.005-.018.008-.057.04-.119.03-.06.045-.098.041-.11-.003-.012-.014-.015-.032-.01-.369.106-.959.66-1.77 1.662-.212.262-.426.539-.643.83zm7.325.891l-.002-.009c-.11.094-.207.273-.291.537-.085.264-.115.48-.091.648.324-.564.452-.956.384-1.176zM9.58 25.468c.227-.066.527-.414.9-1.044l-.013-.045c-.054-.187-.028-.445.077-.772.104-.328.22-.553.348-.674a.1.1 0 0 0-.08-.007c-.222.064-.516.427-.882 1.088-.367.662-.51 1.134-.429 1.418.01.036.037.048.079.036z" mask="url(#prefix__line_qr_code-b)"/>
      <path fill="#FFF" d="M6.425 1.807c.15-.089.302-.175.456-.258v2.634c0 .15.122.273.273.273h11.894a.273.273 0 0 0 .273-.273V1.574c.154.084.306.17.456.26v2.349a.73.73 0 0 1-.73.729H7.155a.73.73 0 0 1-.729-.73V1.808z" mask="url(#prefix__line_qr_code-b)"/>
      <g fill="#FFF" mask="url(#prefix__line_qr_code-b)">
        <path d="M20.078 12.82c-.127-.604-.523-1.118-1.049-1.44L14.73 8.749a3.24 3.24 0 0 0-3.385 0l-4.356 2.667a2.154 2.154 0 0 0-.986 1.404l1.083-5.98a1.574 1.574 0 0 1 1.548-1.293h8.805c.76 0 1.412.544 1.548 1.291l1.09 5.98z"/>
        <path fill-opacity=".93" d="M13.52 15.373a.818.818 0 1 0-.968-.01.542.542 0 0 1 .218.434v5.723a.409.409 0 0 1-.732.25l-5.571-7.18c-.44-.564-.623-1.305-.433-1.996.153-.555.502-.997.955-1.274l4.356-2.67a3.238 3.238 0 0 1 3.384 0l4.462 2.734c.217.133.412.304.548.52.582.915.463 1.924-.074 2.613l-5.619 7.253a.41.41 0 0 1-.731-.25v-5.721a.52.52 0 0 1 .204-.425"/>
      </g>
    </g>
    <path fill="#00B900" d="M103.338 120.442h.747a.172.172 0 0 0 .173-.172v-4.632a.172.172 0 0 0-.173-.171h-.747a.172.172 0 0 0-.173.171v4.632c0 .095.078.172.173.172m1.915 0H106a.172.172 0 0 0 .172-.172v-2.914l2.223 3.012a.17.17 0 0 0 .044.043l.034.018.017.006a.177.177 0 0 0 .047.007h.719a.172.172 0 0 0 .172-.172v-4.632a.172.172 0 0 0-.172-.171h-.748a.172.172 0 0 0-.172.171v2.887l-2.22-2.98a.187.187 0 0 0-.052-.05l-.046-.021-.032-.006h-.009l-.724-.001a.172.172 0 0 0-.173.171v4.632c0 .095.078.172.173.172m-5.956 0h2.986a.172.172 0 0 0 .172-.172v-.746a.172.172 0 0 0-.172-.172h-2.066v-3.714a.172.172 0 0 0-.172-.171h-.748a.172.172 0 0 0-.172.171v4.632a.17.17 0 0 0 .048.119c.037.036.08.053.124.053m11.008-.047a.17.17 0 0 0 .117.047h2.987a.172.172 0 0 0 .172-.172v-.746a.172.172 0 0 0-.172-.172h-2.066v-.853h2.066a.172.172 0 0 0 .172-.172v-.746a.172.172 0 0 0-.172-.171h-2.066v-.854h2.066a.172.172 0 0 0 .172-.172v-.745a.172.172 0 0 0-.172-.172h-2.986a.172.172 0 0 0-.173.171v4.632a.17.17 0 0 0 .049.119l.006.006zm7.66-2.441a.684.684 0 0 1-1.37 0 .684.684 0 0 1 1.37 0m-.57-2.829a2.836 2.836 0 0 0-2.837 2.83 2.836 2.836 0 0 0 3.718 2.69l.168-.06a.114.114 0 0 0 .074-.143l-.162-.499a.114.114 0 0 0-.144-.072l-.17.06a2.083 2.083 0 0 1-2.732-1.976 2.083 2.083 0 0 1 4.168 0c0 .234-.044.479-.131.728-.064.181-.211.329-.329.329a.29.29 0 0 1-.29-.29v-2a.114.114 0 0 0-.114-.114h-.526c-.06 0-.11.047-.113.107l-.002.044-.039-.02a1.385 1.385 0 0 0-2.041 1.216 1.385 1.385 0 0 0 2.126 1.165l.028-.018.013.03c.165.383.542.63.958.63.448 0 .865-.334 1.04-.831.115-.33.173-.658.173-.977a2.836 2.836 0 0 0-2.836-2.829"/>
    <path fill="#35353C" d="M108.906 105.91h-2.997v5.993h5.994v-2.997h-2.997v-5.994h-2.997v-5.994h2.997v2.997h2.997v5.994h-2.997zm-38.962 0v-5.995H63.95v5.994h-5.994v2.997H54.96v-5.994h-2.997v-2.997h-5.994v2.997H42.97v-8.991h-2.997v-2.997h2.997v-2.997h2.997v-8.991h2.997v8.99h2.997v2.998h-5.994v2.997h2.997v2.997h2.997v-5.994h5.994v2.997h5.994v2.997h-5.994v5.994h2.997v5.994h-2.997v2.997h5.994v-2.997h8.991v-2.997h2.997v-2.997H72.94v-2.997h5.995v11.988H66.947v-8.991h5.994v2.997h-2.997zm38.962-35.966v5.994h-5.994v-2.997h-2.997v8.992h5.994v-2.997h2.997v2.997h-2.997v2.997h2.997v2.997h-2.997v2.997h-2.997v2.997h5.994v2.997h2.997V72.94h-5.994v-2.997h-2.997v-2.997h-2.997V63.95h8.991v-2.997h-2.997v-2.997h-5.994v-8.991h2.997v5.994h2.997V42.971h-2.997v-2.997h5.994v-2.997h2.997v8.99h-2.997v5.995h2.997v17.982h-2.997zm-71.93 20.98v-2.997h2.998v2.997h-2.997zm0 8.991v-5.994h2.998v5.994h-2.997zm0 2.997h5.995v2.997h-5.994v-2.997zM13 13h20.98v20.98H13V13zm3.147 17.833h14.686V16.147H16.147v14.686zM90.924 13h20.98v20.98h-20.98V13zm3.147 17.833h14.685V16.147H94.071v14.686zm5.844 9.14v-2.996h2.997v2.997h-2.997zm-71.93 2.998v-2.997h-2.997v-2.997h8.991v2.997h-2.997v2.997h-2.997zM13 45.968V42.97h2.997v2.997H13zm83.918-2.997h5.994v2.997h-5.994V42.97zm-74.927 0v5.994h-2.997V36.977h2.997v2.997h2.997v2.997h-2.997zM36.977 13h5.994v2.997h-5.994V13zm17.982 5.994v-2.997h2.997v2.997H54.96zM60.953 13h2.997v5.994h-2.997V13zm5.994 0h5.994v5.994h-5.994V13zm-26.973 8.991v-2.997h2.997v2.997h-2.997zm17.982 0v-2.997h2.997v2.997h-2.997zm5.994 0v-2.997h2.997v2.997H63.95zm-26.973 2.997v-2.997h2.997v2.997h-2.997zm11.988-2.997v2.997h-2.997v-5.994h2.997v-2.997h2.997v5.994h-2.997zm5.994 2.997v-2.997h2.997v2.997H54.96zm5.994 0v-2.997h2.997v2.997h-2.997zm14.985-5.994v8.991h-8.99v2.997H63.95v8.992h-2.997v2.997h8.991v2.997H51.962V42.97h2.997v-5.994h-8.991v-2.998h2.997v-2.997h-2.997v-2.997h2.997v-2.997h2.997v8.991h2.997v-2.997h2.997v2.997h2.997v-2.997h-2.997v-5.994h2.997v2.997h2.997v-2.997h2.997V21.99h5.994v-2.997h2.997zm-35.964 5.994h5.994v2.997h-5.994v-2.997zM78.936 13h8.99v2.997H84.93v2.997h2.997v8.991H84.93v2.997h-2.997v17.983h-2.997V42.97h-2.998v-8.992h2.998v-2.997h-2.998v-2.997h2.998v-2.997h5.994V21.99h-2.997v-2.997h-5.995v-2.997h2.998V13zm-41.96 20.98v-2.998h2.998v2.997h-2.997zm5.995 0v-2.998h2.997v2.997H42.97zm23.976 0v-2.998h2.997v2.997h-2.997zm5.994 0v-2.998h2.997v2.997h-2.997zm-29.97 0v2.997h2.997v17.982H42.97v-8.991h-2.997v2.997h-2.997v-2.997h-5.995V42.97h5.995v-5.994h2.997v-2.998h2.997zm41.959 5.994v-8.992h2.997v5.995h2.997v2.997H84.93zM48.965 42.97v-2.997h2.997v2.997h-2.997zm23.976 2.997V42.97h2.997v2.997h-2.997zm14.986-2.997h2.997v-2.997h2.997v5.994h-5.994V42.97zM18.994 27.985v-8.99h8.991v8.99h-8.99zm77.924 0v-8.99h8.991v8.99h-8.991zM13 90.924h20.98v20.98H13v-20.98zm3.147 17.832h14.686V94.071H16.147v14.685zm8.841-59.791v-2.997h2.997v2.997h-2.997zm-11.988 0h5.994v2.997H13v-2.997zm17.982 2.997v-2.997h2.997v2.997h-2.997zM13 54.959h2.997v5.994H13V54.96zm0 8.991h2.997v5.994H13V63.95zm8.991-2.997h2.997v-2.997h-2.997v2.997zm2.997 2.997v5.994h-2.997v2.997h-5.994v-2.997h2.997v-2.997h2.997V63.95h-2.997V51.962h2.997v-2.997h2.997v2.997h5.994v2.997h2.997v2.997h-5.994v5.994h-2.997zm2.997 2.997V63.95h2.997v2.997h-2.997zm2.997 2.997v-2.997h2.997v2.997h-2.997zM90.924 54.96v2.997h-2.997V54.96H84.93v-2.997h-2.997v-2.997h2.997v-2.997h2.997v5.994h2.997v-2.997h5.994v5.994h-5.994zm-56.945 0v-2.997h2.998v2.997h-2.998zm2.998 0h5.994v2.997h-2.997v8.991h-5.995V63.95h-2.997v-2.997h2.997v-2.997h2.998V54.96zm5.994 5.994v-2.997h2.997v2.997H42.97zm35.965-2.997h8.99v2.997H84.93v2.997h-5.994v-5.994zM24.988 72.941v-2.997h2.997v2.997h-2.997zm8.991-2.997h5.995v-2.997h2.997v8.991h-2.997v-2.997h-5.995v-2.997zm44.957 2.997v-2.997h2.997v2.997h-2.997zm20.979 0h-5.994v-5.994h-2.997V63.95h-2.997v-2.997h2.997v-2.997h5.994v2.997h-2.997v2.997h2.997v2.997h2.997v5.994zm-71.93 0h5.994v2.997h-5.994v-2.997zm-11.988 2.997h11.988v5.995h-8.99v-2.997h-2.998v-2.998zm62.939 2.998v-2.998h2.997v2.998h-2.997zM13 81.933v-2.997h2.997v2.997H13zm23.977 0v5.994h-5.995V84.93h2.997v-2.997h-2.997v-2.997h11.989v2.997h-5.994zM93.92 72.94v8.992h-2.997V72.94h2.997zM15.997 84.93v-2.997h2.997v2.997h-2.997zm56.944-5.994h2.997v2.997h2.998v2.997h2.997v-2.997h2.997v2.997h2.997v-2.997h2.997v2.997h5.994v-2.997h2.997v17.982h2.997v2.997h-2.997v2.997h-2.997v2.997h5.994v2.997h-8.991v-2.997h-2.997v-2.997h2.997v-2.997h2.997v-2.997H84.93v-2.997h-2.997v-5.994h-2.997v5.994H72.94v2.997h-2.997v-2.997h-2.997v-2.997h8.991v-2.997H60.953v-2.997h-8.991V84.93h2.997v-5.994h2.997v2.997h2.997v2.997h2.997v-2.997h2.997v-2.997h2.997v2.997h2.997v-2.997zm0 8.99h2.997V84.93h-2.997v2.997zm14.986 0v8.992h8.991v-8.991h-8.991zm-74.927 0V84.93h2.997v2.997H13zm14.985-2.996v2.997h-5.994V84.93h5.994zm62.939 8.99v-2.996h2.997v2.997h-2.997zm-11.988 5.995v-2.997h2.997v2.997h-2.997zm2.997 2.997v-2.997h2.997v2.997h-2.997zm2.997 0h5.994v2.997h-2.997v5.994h-5.994v-5.994h2.997v-2.997zm-38.962 2.997h2.997v5.994h-8.991v-2.997h5.994v-2.997zm5.994 5.994v-2.997h2.997v2.997h-2.997zm-32.968-5.994v-8.991h8.991v8.991h-8.99z"/>
  </g>
</svg>
