<svg xmlns="http://www.w3.org/2000/svg" xmlns:xlink="http://www.w3.org/1999/xlink" width="42" height="42">
  <defs>
    <circle id="prefix__v_circle-a" cx="20.344" cy="20.344" r="20.344"/>
  </defs>
  <g fill="none" fill-rule="evenodd" transform="translate(.656 .656)">
    <mask id="prefix__v_circle-b" fill="#fff">
      <use xlink:href="#prefix__v_circle-a"/>
    </mask>
    <use fill="#35353C" xlink:href="#prefix__v_circle-a"/>
    <path fill="#FFF" fill-opacity=".2" d="M14.74 39.906l-.183-.053c-.068-.057-.122-.157-.163-.301a2.07 2.07 0 0 1-.051-.874c-.278.324-.533.61-.765.857a20.192 20.192 0 0 1-.185-.066c.02-.02.04-.041.058-.062l.969-1.087c.108-.383.304-.79.586-1.222.61-.932 1.182-1.475 1.716-1.628.262-.076.427.004.494.238.19.667.026 1.436-.495 2.307a.55.55 0 0 0 .176-.02c.226-.066.504-.278.834-.637.039-.158.09-.326.156-.503a5.906 5.906 0 0 1 1.054-1.775c.468-.552.94-.897 1.416-1.034.186-.054.301-.006.344.144.059.207-.025.526-.25.957-.225.43-.408.667-.548.707-.14.04-.225.009-.254-.094a.5.5 0 0 1 .006-.246c.022-.098.057-.154.104-.167.046-.014.098.007.154.062.404-.564.578-.945.522-1.142-.008-.028-.035-.035-.082-.022-.298.086-.648.416-1.05.99a8.278 8.278 0 0 0-.977 1.86c-.249.666-.328 1.16-.237 1.479.024.084.078.114.162.09.345-.1.935-.616 1.77-1.548l.682-.792.066.18c-.19.217-.408.463-.653.737-.889.989-1.543 1.543-1.963 1.665-.187.054-.336-.117-.448-.511-.06-.21-.07-.452-.033-.728-.336.349-.622.557-.857.625-.122.035-.217.037-.287.006-.28.406-.593.76-.942 1.064-.35.303-.615.48-.798.533a.324.324 0 0 1-.049.01zm-2.21-.773a20.22 20.22 0 0 1-.373-.16l.002-.02-.019-.01-.013.017a20.228 20.228 0 0 1-.159-.071c.607-.855 1.012-1.627 1.216-2.317-.018-.066-.084-.083-.197-.05-.262.075-.652.402-1.167.979a10.7 10.7 0 0 0-.757.951c-.157-.08-.312-.163-.467-.247a4.71 4.71 0 0 1 .21-.233 8.8 8.8 0 0 1 1.302-1.114c.45-.312.846-.517 1.185-.614 1.296-2.623 2.28-4.774 2.95-6.453.135-.345.338-.561.609-.649.085-.024.138.001.16.077.021.075-.39 1.003-1.236 2.783a310.047 310.047 0 0 0-2.51 5.426 47.515 47.515 0 0 0-.737 1.705zm-2.898-1.49a20.359 20.359 0 0 1-.294-.186c.141-.124.256-.198.344-.223.122-.035.192-.024.208.032.015.052-.071.178-.258.376zM5.66 34.424a20.468 20.468 0 0 1-.234-.248 35.82 35.82 0 0 1 1.282-1.728 16.15 16.15 0 0 1 1.905-2.03c.664-.591 1.26-.962 1.787-1.113.178-.05.279-.039.3.036.027.094-.173.382-.599.865-.426.482-.658.729-.695.74-.038.01-.06.001-.069-.027-.008-.028.012-.09.061-.185.05-.095.071-.152.066-.17-.006-.02-.023-.025-.05-.017-.574.164-1.492 1.026-2.754 2.585-.33.408-.663.839-1 1.292zm11.395 1.385l-.005-.014c-.17.146-.32.425-.452.836-.132.41-.179.747-.142 1.007.505-.876.704-1.486.599-1.829zM14.9 39.617c.354-.102.821-.644 1.4-1.624l-.02-.07c-.083-.292-.043-.692.12-1.202.162-.51.343-.859.541-1.048a.156.156 0 0 0-.124-.01c-.345.1-.802.664-1.372 1.692-.57 1.03-.793 1.764-.667 2.206.016.056.057.075.122.056z" mask="url(#prefix__v_circle-b)"/>
    <path fill="#FFF" d="M9.995 2.81c.233-.137.47-.271.709-.4v4.097c0 .235.19.425.425.425h18.5c.235 0 .426-.19.426-.425V2.448c.24.13.475.266.709.405v3.654c0 .626-.508 1.134-1.134 1.134H11.129a1.134 1.134 0 0 1-1.134-1.134V2.81z" mask="url(#prefix__v_circle-b)"/>
    <g fill="#FFF" mask="url(#prefix__v_circle-b)">
      <path d="M30.828 19.745c-.194-.923-.799-1.71-1.603-2.203-1.35-.826-4.37-2.673-6.575-4.024a4.954 4.954 0 0 0-5.178 0l-6.662 4.08a3.294 3.294 0 0 0-1.507 2.147l1.656-9.144a2.407 2.407 0 0 1 2.368-1.977h13.466c1.162 0 2.159.83 2.368 1.974l1.667 9.147z"/>
      <path fill-opacity=".93" d="M20.798 23.65a1.251 1.251 0 0 0-.496-2.244 1.251 1.251 0 0 0-.983 2.229.83.83 0 0 1 .333.663v8.754a.625.625 0 0 1-1.119.382L10.012 22.45c-.672-.862-.952-1.996-.662-3.051a3.293 3.293 0 0 1 1.46-1.95l6.662-4.083a4.952 4.952 0 0 1 5.176-.001l6.824 4.182c.333.203.63.466.839.794.89 1.4.708 2.944-.113 3.999l-8.594 11.092a.626.626 0 0 1-1.119-.383v-8.75c0-.253.108-.502.313-.65"/>
    </g>
  </g>
</svg>
