<svg xmlns="http://www.w3.org/2000/svg" width="316" height="75">
  <g fill="none" fill-rule="evenodd">
    <path fill="#211B43" fill-rule="nonzero" d="M73.83 56.91c.204 3.72 1.45 6.595 3.74 8.623 2.289 2.027 5.416 3.041 9.38 3.041 2.993 0 6.253-.807 9.783-2.421 3.53-1.615 5.665-2.422 6.407-2.422.767 0 1.407.245 1.918.736.512.49.768 1.098.768 1.821 0 .75-.269 1.434-.806 2.054-.537.62-1.394 1.227-2.57 1.821a38.706 38.706 0 0 1-7.923 2.906 33.792 33.792 0 0 1-8.114 1.008c-5.832 0-10.5-1.699-14.003-5.096-3.504-3.397-5.256-7.898-5.256-13.504 0-5.71 1.854-10.333 5.563-13.872 3.708-3.54 8.542-5.31 14.502-5.31 5.396 0 9.872 1.654 13.427 4.96 3.555 3.307 5.333 7.312 5.333 12.013 0 1.447-.3 2.416-.902 2.906-.6.491-2.231.737-4.891.737H73.829zm.191-5.075h24.976c-.384-3.075-1.656-5.548-3.818-7.421-2.16-1.873-4.814-2.81-7.96-2.81-3.402 0-6.267.905-8.594 2.713-2.328 1.808-3.862 4.314-4.604 7.518zm56.166 15.81h12.737c.998 0 1.733.213 2.206.639.473.426.71 1.104.71 2.034 0 1.06-.224 1.79-.671 2.19-.448.4-1.273.6-2.475.6h-25.09c-.998 0-1.752-.232-2.264-.697-.512-.465-.767-1.163-.767-2.093 0-.904.262-1.576.786-2.015.524-.439 1.337-.659 2.436-.659h6.676V42.806h-2.609c-2.481 0-4.028-.2-4.642-.6-.614-.401-.92-1.131-.92-2.19 0-.904.248-1.582.747-2.035.499-.452 1.26-.678 2.283-.678h8.747c.69 0 1.215.136 1.573.407.358.271.537.665.537 1.182v6.588c2.43-3.075 4.962-5.36 7.596-6.86a16.943 16.943 0 0 1 8.517-2.247c2.277 0 4.118.465 5.525 1.395 1.407.93 2.11 2.132 2.11 3.604 0 .956-.352 1.802-1.055 2.538-.703.736-1.477 1.105-2.321 1.105-.588 0-1.58-.394-2.973-1.182-1.394-.788-2.641-1.182-3.741-1.182-1.995 0-4.099.717-6.311 2.15-2.212 1.434-4.661 3.701-7.347 6.801v16.042zm62.458 5.463c-.537 0-.914-.135-1.132-.407-.217-.27-.326-.794-.326-1.57v-3.177c-1.535 1.938-3.453 3.443-5.755 4.515-2.302 1.072-4.795 1.608-7.48 1.608-4.835 0-8.882-1.737-12.143-5.212-3.261-3.475-4.892-7.795-4.892-12.962 0-5.347 1.74-9.797 5.218-13.35 3.478-3.551 7.813-5.327 13.006-5.327 2.634 0 5 .471 7.097 1.414 2.097.943 3.9 2.332 5.41 4.166V27.965h-2.034c-2.225 0-3.664-.2-4.316-.601-.652-.4-.978-1.13-.978-2.19 0-.93.262-1.627.786-2.092.525-.465 1.285-.697 2.283-.697h7.865c.767 0 1.323.129 1.669.387.345.258.518.659.518 1.201v43.671h1.726c1.253 0 2.161.214 2.724.64.563.426.844 1.104.844 2.034 0 .879-.243 1.563-.73 2.054-.485.49-1.137.736-1.956.736h-7.404zM167.516 55.71c0 3.565 1.138 6.485 3.414 8.758 2.277 2.273 5.167 3.41 8.67 3.41 3.53 0 6.433-1.182 8.71-3.546 2.276-2.363 3.414-5.367 3.414-9.009 0-3.59-1.132-6.549-3.395-8.874-2.264-2.325-5.173-3.487-8.728-3.487-3.606 0-6.522 1.175-8.747 3.526-2.225 2.35-3.338 5.425-3.338 9.222zm60.731 12.943c3.94 0 7.168-1.26 9.688-3.778 2.519-2.519 3.778-5.729 3.778-9.63 0-3.9-1.266-7.123-3.798-9.668-2.532-2.544-5.754-3.816-9.668-3.816-3.913 0-7.129 1.272-9.648 3.816-2.52 2.545-3.78 5.768-3.78 9.668 0 3.927 1.254 7.143 3.76 9.65 2.507 2.505 5.73 3.758 9.668 3.758zm20.142-13.408c0 5.529-1.867 10.05-5.601 13.563-3.735 3.513-8.581 5.27-14.54 5.27-5.934 0-10.768-1.757-14.502-5.27-3.735-3.513-5.602-8.034-5.602-13.563 0-5.528 1.867-10.042 5.602-13.543 3.734-3.5 8.568-5.25 14.501-5.25 5.934 0 10.774 1.756 14.521 5.27 3.747 3.513 5.62 8.021 5.62 13.523zm38.556-15.616v-.155c0-.852.243-1.479.73-1.88.485-.4 1.24-.6 2.263-.6 1.049 0 1.771.31 2.168.93.396.62.594 1.899.594 3.837v7.207c0 .956-.243 1.673-.729 2.15-.486.479-1.215.718-2.187.718-.69 0-1.285-.2-1.783-.601-.5-.4-1.107-1.234-1.823-2.5-1.227-2.092-2.717-3.674-4.47-4.746-1.751-1.072-3.765-1.608-6.042-1.608-3.99 0-7.232 1.188-9.725 3.565-2.494 2.376-3.74 5.45-3.74 9.222 0 3.85 1.195 6.994 3.586 9.436 2.392 2.44 5.467 3.661 9.227 3.661 1.714 0 3.344-.239 4.892-.716a15.966 15.966 0 0 0 4.392-2.151c.486-.31 1.138-.788 1.957-1.434 1.662-1.369 2.967-2.054 3.913-2.054.793 0 1.439.252 1.938.756.498.504.748 1.156.748 1.957 0 2.04-1.912 4.127-5.736 6.258-3.824 2.131-7.884 3.197-12.18 3.197-5.55 0-10.174-1.795-13.87-5.386-3.695-3.591-5.543-8.073-5.543-13.447 0-5.373 1.841-9.861 5.524-13.465 3.683-3.604 8.287-5.406 13.812-5.406 1.943 0 3.894.265 5.85.795 1.957.53 4.035 1.35 6.234 2.46zm18.93 29.31c0-1.323.457-2.408 1.372-3.255.915-.848 2.102-1.272 3.562-1.272 1.494 0 2.694.416 3.6 1.246.907.831 1.36 1.924 1.36 3.28 0 1.357-.457 2.45-1.372 3.281-.915.83-2.11 1.246-3.588 1.246-1.477 0-2.668-.415-3.575-1.246-.906-.83-1.36-1.924-1.36-3.28z"/>
    <path fill="#302A57" d="M12.532.184h39.74a7.104 7.104 0 0 1 6.99 5.827l4.97 27.208H.607l4.936-27.2a7.104 7.104 0 0 1 6.99-5.835z"/>
    <path fill="#5856D6" d="M34.58 44.53a3.693 3.693 0 0 0 1.461-3.749c-.284-1.443-1.478-2.612-2.925-2.873a3.692 3.692 0 0 0-4.377 3.626c0 1.206.58 2.278 1.475 2.951.619.463.984 1.188.984 1.959v25.833a1.844 1.844 0 0 1-3.301 1.13L2.747 40.989C.765 38.444-.061 35.1.794 31.984a9.718 9.718 0 0 1 4.31-5.753l19.662-12.05a14.616 14.616 0 0 1 15.275-.005c6.945 4.256 16.626 10.19 20.14 12.342.98.6 1.858 1.375 2.474 2.345 2.628 4.133 2.09 8.687-.333 11.8L36.96 73.4a1.847 1.847 0 0 1-2.589.329 1.848 1.848 0 0 1-.714-1.458V46.446c0-.746.317-1.48.923-1.917"/>
  </g>
</svg>
