<?xml version="1.0" encoding="UTF-8"?>
<svg width="224px" height="29px" viewBox="0 0 224 29" version="1.1" xmlns="http://www.w3.org/2000/svg" xmlns:xlink="http://www.w3.org/1999/xlink">
    <!-- Generator: Sketch 56.2 (81672) - https://sketch.com -->
    <title>Logos / logo_existing_white</title>
    <desc>Created with Sketch.</desc>
    <g id="Logos-/-logo_existing_white" stroke="none" stroke-width="1" fill="none" fill-rule="evenodd">
        <path d="M198.645217,18.0526316 L205.283543,18.0526316 C205.624562,18.8320476 206.081544,19.5252669 206.645995,20.11675 C207.304424,20.809 208.106415,21.35425 209.027164,21.7405 C209.949417,22.12675 210.997191,22.3225 212.141927,22.3225 C213.31823,22.3225 214.34496,22.189 215.192049,21.92575 C215.968484,21.68575 216.607371,21.43825 217.095932,21.19 L217.095932,17.4865 L212.572612,17.4865 L212.572612,12.2365 L223,12.2365 L223,25.4725 L222.849674,25.55125 C221.195332,26.41225 219.445533,27.043 217.649133,27.4255 C215.856491,27.8065 214.002215,28 212.141927,28 C210.145593,28 208.280042,27.6835 206.594132,27.05875 C204.902209,26.431 203.419239,25.5205 202.18957,24.3505 C200.95539,23.1805 199.979772,21.7435 199.292029,20.07925 C199.02535,19.4350839 198.809527,18.7585533 198.645217,18.0526316 Z M38.4205606,17.3421053 L12.3121019,17.3421053 L12.3121019,11.6578947 L38.4205606,11.6578947 L32.1082803,1 L38.7413739,1 L46.736929,14.5 L38.7413739,28 L32.1082803,28 L38.4205606,17.3421053 Z M1,28 L1,1 L6.65605096,1 L6.65605096,22.3157895 L25.0382166,22.3157895 L25.0382166,28 L1,28 Z M46.2484076,24.8747301 L49.5649545,19.274946 L54.7324841,28 L48.0993904,28 L46.2484076,24.8747301 Z M61.8025478,28 L61.8025478,1 L67.4585987,1 L67.4585987,28 L61.8025478,28 Z M132.048681,6.8275 L124.726115,6.8275 L124.726115,1 L145.229299,1 L145.229299,6.8275 L137.906733,6.8275 L137.906733,28 L132.048681,28 L132.048681,6.8275 Z M153.006369,28 L153.006369,1 L158.66242,1 L158.66242,28 L153.006369,28 Z M165.732484,1 L173.887678,1 L185.192211,19.56325 L185.192211,1 L191.184713,1 L191.184713,28 L183.314734,28 L171.725735,8.97025 L171.721244,28 L165.732484,28 L165.732484,1 Z M81.5987261,1 L81.5987261,6.49975 L78.1966115,6.49975 L78.1966115,22.4965 L81.5987261,22.4965 L81.5987261,28 L74.5286624,28 L74.5286624,1 L81.5987261,1 Z M110.585987,1 L117.656051,1 L117.656051,28 L110.585987,28 L110.585987,22.4965 L113.988102,22.4965 L113.988102,6.49975 L110.585987,6.49975 L110.585987,1 Z M86.7460462,28 L86.7460462,22.4965 L98.0742829,22.4965 C99.5383054,22.4965 100.745093,21.3145 100.745093,19.87375 C100.745093,18.433 99.5383054,17.25175 98.0742829,17.25175 L94.1111938,17.25175 C89.5450924,17.25175 85.8407643,13.609 85.8407643,9.1255 C85.8407643,4.639 89.5450924,1 94.1111938,1 L105.782919,1 L105.782919,6.49975 L94.1111938,6.49975 C92.646408,6.49975 91.4403832,7.68475 91.4403832,9.1255 C91.4403832,10.5625 92.646408,11.74825 94.1111938,11.74825 L98.0742829,11.74825 C102.638858,11.74825 106.343949,15.38725 106.343949,19.87375 C106.343949,24.36025 102.638858,28 98.0742829,28 L86.7460462,28 Z M198.498987,11.6578947 C198.672197,10.6923968 198.937061,9.7774278 199.292029,8.92 C199.979772,7.2565 200.954639,5.82025 202.18957,4.64875 C203.419239,3.4795 204.902209,2.569 206.594132,1.9405 C208.280042,1.31575 210.145593,1 212.141927,1 C214.174339,1 216.075968,1.249 217.792695,1.73875 C219.525206,2.23525 221.067555,3.09925 222.376146,4.30825 L222.580589,4.498 L218.272987,9.187 L218.065537,8.9725 C217.337206,8.2225 216.504398,7.64575 215.59342,7.258 C214.683194,6.87325 213.521923,6.6775 212.141927,6.6775 C210.997943,6.6775 209.950168,6.87325 209.026413,7.25875 C208.106415,7.64575 207.304424,8.19175 206.645995,8.8825 C205.986814,9.57325 205.474952,10.408 205.121685,11.36275 C205.085539,11.4601265 205.05121,11.5585185 205.018704,11.6578947 L198.498987,11.6578947 Z M12.3121019,6.68421053 L12.3121019,1 L25.0382166,1 L25.0382166,6.68421053 L12.3121019,6.68421053 Z M49.5649545,9.72505397 L46.2484076,4.12526986 L48.0993904,1 L54.7324841,1 L49.5649545,9.72505397 Z" id="Shape" fill="#FFFFFF"></path>
    </g>
</svg>